<svg width="62" height="60" viewBox="0 0 62 60" fill="none" xmlns="http://www.w3.org/2000/svg">
<path fill-rule="evenodd" clip-rule="evenodd" d="M5.91182 20.2904L27.1324 8.79043C28.6427 7.99043 30.4552 7.99043 31.9655 8.79043L55.9299 21.7654C56.7354 22.2154 57.2388 23.0404 57.2388 23.9654V39.9904C57.2388 41.3654 56.1061 42.4904 54.7216 42.4904C53.3371 42.4904 52.2043 41.3654 52.2043 39.9904V25.2154L31.9655 36.1904C30.4552 37.0154 28.6427 37.0154 27.1324 36.1904L5.91182 24.6904C4.1749 23.7404 4.1749 21.2404 5.91182 20.2904ZM11.928 39.9655V32.9405L27.1323 41.1905C28.6427 42.0155 30.4551 42.0155 31.9655 41.1905L47.1698 32.9405V39.9655C47.1698 41.7905 46.1628 43.4905 44.5518 44.3655L31.9655 51.1905C30.4551 52.0155 28.6427 52.0155 27.1323 51.1905L14.546 44.3655C12.9349 43.4905 11.928 41.7905 11.928 39.9655Z" fill="#0A4A2E"/>
</svg>
