<svg width="90" height="90" viewBox="0 0 90 90" fill="none" xmlns="http://www.w3.org/2000/svg">
<path d="M24.999 49.8015C34.5259 49.8015 42.249 42.0672 42.249 32.5265C42.249 22.9857 34.5259 15.2515 24.999 15.2515C15.4721 15.2515 7.74902 22.9857 7.74902 32.5265C7.74902 42.0672 15.4721 49.8015 24.999 49.8015Z" fill="#0BA360" stroke="#0BA360" stroke-width="0.5" stroke-miterlimit="10"/>
<path d="M22.9975 49.8874C19.055 55.3099 13.75 57.4999 6.25 57.4999C9.8425 55.1049 13.435 50.4149 14.83 46.7286L22.9975 49.8874Z" fill="#0BA360"/>
<path d="M64.999 68.8505C74.5259 68.8505 82.249 61.1274 82.249 51.6005C82.249 42.0736 74.5259 34.3505 64.999 34.3505C55.4721 34.3505 47.749 42.0736 47.749 51.6005C47.749 61.1274 55.4721 68.8505 64.999 68.8505Z" fill="#0BA360" stroke="#0BA360" stroke-width="0.5" stroke-miterlimit="10"/>
<path d="M67.002 68.9886C70.9445 74.4111 76.2495 76.6011 83.7495 76.6011C80.1569 74.2061 76.5645 69.5161 75.1695 65.8298L67.002 68.9886Z" fill="#0BA360"/>
<path d="M16.25 35C17.6307 35 18.75 33.8807 18.75 32.5C18.75 31.1193 17.6307 30 16.25 30C14.8693 30 13.75 31.1193 13.75 32.5C13.75 33.8807 14.8693 35 16.25 35Z" fill="#0BA360"/>
<path d="M25 35C26.3807 35 27.5 33.8807 27.5 32.5C27.5 31.1193 26.3807 30 25 30C23.6193 30 22.5 31.1193 22.5 32.5C22.5 33.8807 23.6193 35 25 35Z" fill="#0BA360"/>
<path d="M33.75 35C35.1307 35 36.25 33.8807 36.25 32.5C36.25 31.1193 35.1307 30 33.75 30C32.3693 30 31.25 31.1193 31.25 32.5C31.25 33.8807 32.3693 35 33.75 35Z" fill="#0BA360"/>
<path d="M14.83 46.7286C13.435 50.4161 9.8425 55.1048 6.25 57.4998C13.75 57.4998 19.055 55.3098 22.9975 49.8873" stroke="#0BA360" stroke-width="0.5" stroke-miterlimit="10" stroke-linecap="round" stroke-linejoin="round"/>
<path d="M27.8437 49.77C36.1562 48.4125 42.5 41.1962 42.5 32.5C42.5 22.835 34.665 15 25 15C15.335 15 7.5 22.835 7.5 32.5C7.5 36.6675 8.95625 40.4937 11.3875 43.5" stroke="#0BA360" stroke-width="0.5" stroke-miterlimit="10" stroke-linecap="round"/>
<path d="M73.75 54.0994C75.1307 54.0994 76.25 52.9801 76.25 51.5994C76.25 50.2187 75.1307 49.0994 73.75 49.0994C72.3693 49.0994 71.25 50.2187 71.25 51.5994C71.25 52.9801 72.3693 54.0994 73.75 54.0994Z" fill="#0BA360"/>
<path d="M65 54.0994C66.3807 54.0994 67.5 52.9801 67.5 51.5994C67.5 50.2187 66.3807 49.0994 65 49.0994C63.6193 49.0994 62.5 50.2187 62.5 51.5994C62.5 52.9801 63.6193 54.0994 65 54.0994Z" fill="#0BA360"/>
<path d="M56.25 54.0994C57.6307 54.0994 58.75 52.9801 58.75 51.5994C58.75 50.2187 57.6307 49.0994 56.25 49.0994C54.8693 49.0994 53.75 50.2187 53.75 51.5994C53.75 52.9801 54.8693 54.0994 56.25 54.0994Z" fill="#0BA360"/>
<path d="M75.1695 65.8279C76.5645 69.5154 80.157 74.2041 83.7495 76.5991C76.2495 76.5991 70.9445 74.4091 67.002 68.9866" stroke="#0BA360" stroke-width="0.5" stroke-miterlimit="10" stroke-linecap="round" stroke-linejoin="round"/>
<path d="M62.1562 68.8693C53.8437 67.5118 47.5 60.2955 47.5 51.5993C47.5 41.9343 55.335 34.0993 65 34.0993C74.665 34.0993 82.5 41.9343 82.5 51.5993C82.5 55.7668 81.0437 59.5931 78.6125 62.5993" stroke="#0BA360" stroke-width="0.5" stroke-miterlimit="10" stroke-linecap="round"/>
</svg>
