<svg width="213" height="312" viewBox="0 0 213 312" fill="none" xmlns="http://www.w3.org/2000/svg">
<path fill-rule="evenodd" clip-rule="evenodd" d="M136.322 14.302C138.958 24.2345 142.394 46.5603 138.888 50.0625H116.707C116.705 50.0222 116.703 49.9821 116.701 49.9421C108.48 49.0119 102.086 41.8858 102.086 33.2329V16.812C102.086 7.52697 109.448 0 118.53 0H120.059C128.307 0 135.137 6.20755 136.322 14.302Z" fill="#191847"/>
<path fill-rule="evenodd" clip-rule="evenodd" d="M110.7 30.0975C107.176 25.8681 104.791 20.6849 105.189 14.877C106.338 -1.85721 129.122 1.82411 133.555 10.2701C137.987 18.7161 137.46 40.1401 131.732 41.6496C129.448 42.2516 124.581 40.777 119.628 37.7249L122.737 60.2105H104.381L110.7 30.0975Z" fill="#D4A181"/>
<path fill-rule="evenodd" clip-rule="evenodd" d="M115.662 27.2692C116.508 36.5573 116.169 47.1641 113.649 49.6819H91.4682C90.2324 27.7295 102.176 36.2304 102.176 15.5617C102.921 14.8179 103.624 14.0816 104.321 13.4467L104.296 12.8388C108.137 4.79996 113.009 0.780518 118.914 0.780518C127.771 0.780518 130.567 4.99396 132.947 8.57123C131.167 14.8152 124.26 15.7411 118.122 19.6331C117.399 19.0322 116.476 18.672 115.471 18.672C113.148 18.672 111.265 20.5975 111.265 22.9728C111.265 25.348 113.148 27.2736 115.471 27.2736C115.535 27.2736 115.599 27.2721 115.662 27.2692Z" fill="#191847"/>
<path fill-rule="evenodd" clip-rule="evenodd" d="M74.8638 201.813C93.2119 207.06 109.042 209.683 122.354 209.683C135.667 209.683 148.032 205.643 159.45 197.563C141.494 192.178 126.707 189.485 115.089 189.485C103.47 189.485 90.0617 193.595 74.8638 201.813Z" fill="#1F28CF"/>
<path fill-rule="evenodd" clip-rule="evenodd" d="M138.238 217.246C138.061 216.974 137.912 216.678 137.793 216.358C135.341 209.727 96.0568 138.191 92.1432 125.113H136.371C139.347 135.057 152.74 197.459 154.624 209.909C160.571 229.548 172.816 293.151 174.379 297.557C176.023 302.193 166.771 307.021 164.305 301.323C160.382 292.256 151.035 267.167 146.873 251.847C142.972 237.486 139.794 224.565 138.238 217.246Z" fill="#BA8B72"/>
<path fill-rule="evenodd" clip-rule="evenodd" d="M102.054 225.98C84.0942 230.621 18.4006 239.01 13.8925 240.326C9.25494 241.68 5.18872 231.907 10.9209 229.79C20.0419 226.422 45.1741 218.639 60.4119 215.463C72.6683 212.908 83.8524 210.824 91.3611 209.603C90.725 188.039 87.8171 136.29 89.723 125.113H128.857C127.029 135.831 111.579 214.035 108.707 221.863C107.796 224.657 105.077 225.892 102.054 225.98Z" fill="#D4A181"/>
<path fill-rule="evenodd" clip-rule="evenodd" d="M11.4294 227.213C9.01409 226.771 7.24313 226.655 6.11656 226.863C4.74638 227.115 2.78621 227.715 0.236035 228.662C0.509346 230.27 2.96564 244.719 7.60491 272.011C11.4781 272.458 13.3552 271.441 13.2362 268.96C13.1172 266.479 13.0395 264.414 13.0032 262.765L18.4581 240.978C18.563 240.559 18.3136 240.136 17.9009 240.034C17.8939 240.033 17.8868 240.031 17.8797 240.029L14.5537 239.307C13.1354 237.252 12.3069 235.522 12.0681 234.117C11.8741 232.976 12.0618 231.315 12.6313 229.136L12.6314 229.136C12.8499 228.3 12.3599 227.449 11.5368 227.236C11.5013 227.227 11.4655 227.219 11.4294 227.213Z" fill="#E4E4E4"/>
<path fill-rule="evenodd" clip-rule="evenodd" d="M161.497 300.585C160.641 302.92 160.213 304.668 160.213 305.827C160.213 307.237 160.443 309.295 160.903 312C162.503 312 176.882 312 204.041 312C205.162 308.211 204.515 306.165 202.1 305.863C199.685 305.561 197.678 305.288 196.081 305.045L176.03 295.907C175.645 295.731 175.192 295.908 175.02 296.302C175.017 296.309 175.015 296.316 175.012 296.323L173.723 299.519C171.487 300.586 169.67 301.119 168.272 301.119C167.137 301.119 165.568 300.65 163.567 299.712L163.567 299.712C162.799 299.352 161.891 299.697 161.539 300.482C161.524 300.516 161.51 300.55 161.497 300.585Z" fill="#E4E4E4"/>
<path fill-rule="evenodd" clip-rule="evenodd" d="M89.8484 125.112C107.093 120.068 123.41 120.068 138.799 125.112C144.152 150.086 157.162 159.998 159.449 198.287C133.445 211.497 101.321 188.866 74.5514 201.748C66.903 183.729 77.6108 140.333 89.8484 125.112Z" fill="#2B44FF"/>
<path fill-rule="evenodd" clip-rule="evenodd" d="M164.038 94.078L194.236 89.8667C200.277 86.4315 205.835 84.1059 210.908 82.89C212.336 82.8474 214.608 83.378 211.224 86.2619C207.84 89.1459 204.407 92.3361 205.01 93.8752C205.613 95.4143 208.759 94.8417 209.281 97.2089C209.628 98.7871 204.521 99.0435 193.959 97.9782L169.456 107.91L164.038 94.078ZM69.174 101.224L85.9221 101.288C67.5573 143.54 57.9816 165.662 57.195 167.655C55.4252 172.139 59.1704 178.968 60.772 182.638C55.5557 185.025 56.1115 176.187 49.5313 179.317C43.5252 182.174 38.9563 187.35 32.0171 182.972C31.164 182.434 30.2291 180.408 32.4879 178.824C38.1155 174.879 46.2251 167.975 47.3209 165.702C48.8151 162.603 56.0995 141.11 69.174 101.224Z" fill="#D4A181"/>
<path fill-rule="evenodd" clip-rule="evenodd" d="M115.049 46.9163L128.162 47.809C131.391 77.6802 148.981 96.5475 188.367 90.1587L193.599 128.626C156.787 133.491 124.503 118.425 117.888 77.6299C116.175 67.0694 114.823 56.0791 115.049 46.9163Z" fill="#AFB9C5"/>
<path fill-rule="evenodd" clip-rule="evenodd" d="M108.58 43.0202L128.448 47.6723C128.448 82.6092 139.334 104.9 144.917 130.586H91.2582C90.5023 139.462 90.0381 148.585 89.7962 157.955H49.6184C58.7229 108.429 77.9395 70.1133 107.268 43.0078H108.569L108.58 43.0202Z" fill="#C5CFD6"/>
<path fill-rule="evenodd" clip-rule="evenodd" d="M99.7237 80.744C98.3409 102.515 99.1542 119.129 102.164 130.586H91.2578C92.7552 113.003 95.3973 96.3891 99.7237 80.744V80.744Z" fill="black" fill-opacity="0.1"/>
</svg>
