<svg width="1254" height="290" viewBox="0 0 1254 290" fill="none" xmlns="http://www.w3.org/2000/svg">
<path d="M1060 104.801C1069.53 104.801 1077.25 97.0672 1077.25 87.5265C1077.25 77.9857 1069.53 70.2515 1060 70.2515C1050.47 70.2515 1042.75 77.9857 1042.75 87.5265C1042.75 97.0672 1050.47 104.801 1060 104.801Z" fill="#0BA360" stroke="#0BA360" stroke-width="0.5" stroke-miterlimit="10"/>
<path d="M1058 104.888C1054.06 110.31 1048.75 112.5 1041.25 112.5C1044.84 110.105 1048.44 105.415 1049.83 101.729L1058 104.888Z" fill="#0BA360"/>
<path d="M1100 123.851C1109.53 123.851 1117.25 116.128 1117.25 106.601C1117.25 97.0737 1109.53 89.3506 1100 89.3506C1090.47 89.3506 1082.75 97.0737 1082.75 106.601C1082.75 116.128 1090.47 123.851 1100 123.851Z" fill="#0BA360" stroke="#0BA360" stroke-width="0.5" stroke-miterlimit="10"/>
<path d="M1102 123.989C1105.94 129.411 1111.25 131.601 1118.75 131.601C1115.16 129.206 1111.56 124.516 1110.17 120.83L1102 123.989Z" fill="#0BA360"/>
<path d="M1051.25 90C1052.63 90 1053.75 88.8807 1053.75 87.5C1053.75 86.1193 1052.63 85 1051.25 85C1049.87 85 1048.75 86.1193 1048.75 87.5C1048.75 88.8807 1049.87 90 1051.25 90Z" fill="#0BA360"/>
<path d="M1060 90C1061.38 90 1062.5 88.8807 1062.5 87.5C1062.5 86.1193 1061.38 85 1060 85C1058.62 85 1057.5 86.1193 1057.5 87.5C1057.5 88.8807 1058.62 90 1060 90Z" fill="#0BA360"/>
<path d="M1068.75 90C1070.13 90 1071.25 88.8807 1071.25 87.5C1071.25 86.1193 1070.13 85 1068.75 85C1067.37 85 1066.25 86.1193 1066.25 87.5C1066.25 88.8807 1067.37 90 1068.75 90Z" fill="#0BA360"/>
<path d="M1049.83 101.729C1048.44 105.416 1044.84 110.105 1041.25 112.5C1048.75 112.5 1054.06 110.31 1058 104.887" stroke="#0BA360" stroke-width="0.5" stroke-miterlimit="10" stroke-linecap="round" stroke-linejoin="round"/>
<path d="M1062.84 104.77C1071.16 103.412 1077.5 96.1962 1077.5 87.5C1077.5 77.835 1069.66 70 1060 70C1050.33 70 1042.5 77.835 1042.5 87.5C1042.5 91.6675 1043.96 95.4937 1046.39 98.5" stroke="#0BA360" stroke-width="0.5" stroke-miterlimit="10" stroke-linecap="round"/>
<path d="M1108.75 109.099C1110.13 109.099 1111.25 107.98 1111.25 106.599C1111.25 105.219 1110.13 104.099 1108.75 104.099C1107.37 104.099 1106.25 105.219 1106.25 106.599C1106.25 107.98 1107.37 109.099 1108.75 109.099Z" fill="#0BA360"/>
<path d="M1100 109.099C1101.38 109.099 1102.5 107.98 1102.5 106.599C1102.5 105.219 1101.38 104.099 1100 104.099C1098.62 104.099 1097.5 105.219 1097.5 106.599C1097.5 107.98 1098.62 109.099 1100 109.099Z" fill="#0BA360"/>
<path d="M1091.25 109.099C1092.63 109.099 1093.75 107.98 1093.75 106.599C1093.75 105.219 1092.63 104.099 1091.25 104.099C1089.87 104.099 1088.75 105.219 1088.75 106.599C1088.75 107.98 1089.87 109.099 1091.25 109.099Z" fill="#0BA360"/>
<path d="M1110.17 120.828C1111.56 124.515 1115.16 129.204 1118.75 131.599C1111.25 131.599 1105.94 129.409 1102 123.987" stroke="#0BA360" stroke-width="0.5" stroke-miterlimit="10" stroke-linecap="round" stroke-linejoin="round"/>
<path d="M1097.16 123.869C1088.84 122.512 1082.5 115.296 1082.5 106.599C1082.5 96.9344 1090.34 89.0994 1100 89.0994C1109.67 89.0994 1117.5 96.9344 1117.5 106.599C1117.5 110.767 1116.04 114.593 1113.61 117.599" stroke="#0BA360" stroke-width="0.5" stroke-miterlimit="10" stroke-linecap="round"/>
<path fill-rule="evenodd" clip-rule="evenodd" d="M841.667 213.333H828.334C828.334 205.967 822.367 200 815 200C807.634 200 801.667 205.967 801.667 213.333H788.334C784.667 213.333 781.667 216.333 781.667 220V230C781.667 233.7 784.634 236.667 788.334 236.667H808.334V233.333C808.334 231.5 809.834 230 811.667 230H818.334C820.167 230 821.667 231.5 821.667 233.333V236.667H841.667C845.334 236.667 848.334 233.667 848.334 230V220C848.334 216.333 845.334 213.333 841.667 213.333ZM818.334 243.333H811.667C809.834 243.333 808.334 241.833 808.334 240H785.034V253.333C785.034 257 788.034 260 791.7 260H838.334C842 260 845 257 845 253.333V240H821.667C821.667 241.833 820.167 243.333 818.334 243.333ZM815 206.667C811.334 206.667 808.334 209.667 808.334 213.333H821.667C821.667 209.667 818.667 206.667 815 206.667Z" fill="#0BA360"/>
<path fill-rule="evenodd" clip-rule="evenodd" d="M531.879 58.0542L559.979 42.7209C561.979 41.6542 564.379 41.6542 566.379 42.7209L598.113 60.0209C599.179 60.6209 599.846 61.7209 599.846 62.9542V84.3209C599.846 86.1542 598.346 87.6542 596.513 87.6542C594.679 87.6542 593.179 86.1542 593.179 84.3209V64.6209L566.379 79.2542C564.379 80.3542 561.979 80.3542 559.979 79.2542L531.879 63.9209C529.579 62.6542 529.579 59.3209 531.879 58.0542ZM539.846 84.2876V74.9209L559.979 85.9209C561.979 87.0209 564.379 87.0209 566.379 85.9209L586.513 74.9209V84.2876C586.513 86.7209 585.179 88.9876 583.046 90.1543L566.379 99.2543C564.379 100.354 561.979 100.354 559.979 99.2543L543.313 90.1543C541.179 88.9876 539.846 86.7209 539.846 84.2876Z" fill="#0BA360"/>
<path fill-rule="evenodd" clip-rule="evenodd" d="M82.333 26.6666C82.333 34.0333 76.3663 39.9999 68.9997 39.9999C61.633 39.9999 55.6663 34.0333 55.6663 26.6666C55.6663 19.2999 61.633 13.3333 68.9997 13.3333C76.3663 13.3333 82.333 19.2999 82.333 26.6666ZM42.333 59.9999C42.333 51.1332 60.0997 46.6666 68.9997 46.6666C77.8997 46.6666 95.6663 51.1332 95.6663 59.9999V63.3332C95.6663 65.1666 94.1663 66.6666 92.333 66.6666H45.6663C43.833 66.6666 42.333 65.1666 42.333 63.3332V59.9999Z" fill="#0BA360"/>
<path fill-rule="evenodd" clip-rule="evenodd" d="M280.879 142.054L308.979 126.721C310.979 125.654 313.379 125.654 315.379 126.721L347.113 144.021C348.179 144.621 348.846 145.721 348.846 146.954V168.321C348.846 170.154 347.346 171.654 345.513 171.654C343.679 171.654 342.179 170.154 342.179 168.321V148.621L315.379 163.254C313.379 164.354 310.979 164.354 308.979 163.254L280.879 147.921C278.579 146.654 278.579 143.321 280.879 142.054ZM288.846 168.288V158.921L308.979 169.921C310.979 171.021 313.379 171.021 315.379 169.921L335.513 158.921V168.288C335.513 170.721 334.179 172.988 332.046 174.154L315.379 183.254C313.379 184.354 310.979 184.354 308.979 183.254L292.313 174.154C290.179 172.988 288.846 170.721 288.846 168.288Z" fill="#0BA360"/>
<path d="M7.99264 83.2515C6.81588 83.2515 5.8857 83.6445 5.20211 84.4307C4.5234 85.2119 4.18404 86.2837 4.18404 87.646C4.18404 89.0474 4.51119 90.1313 5.16549 90.8979C5.82467 91.6597 6.76217 92.0405 7.97799 92.0405C8.72506 92.0405 9.57711 91.9062 10.5341 91.6377V92.729C9.79195 93.0073 8.87643 93.1465 7.78756 93.1465C6.21041 93.1465 4.99215 92.668 4.13277 91.7109C3.27828 90.7539 2.85104 89.394 2.85104 87.6313C2.85104 86.5278 3.05611 85.561 3.46627 84.731C3.88131 83.9009 4.47701 83.2612 5.25338 82.812C6.03463 82.3628 6.9526 82.1382 8.00729 82.1382C9.13033 82.1382 10.1118 82.3433 10.9516 82.7534L10.4243 83.8228C9.61373 83.4419 8.80318 83.2515 7.99264 83.2515ZM16.3496 84.8262C16.706 84.8262 17.0258 84.8555 17.309 84.9141L17.1406 86.042C16.8086 85.9688 16.5156 85.9321 16.2617 85.9321C15.6123 85.9321 15.0556 86.1958 14.5918 86.7231C14.1328 87.2505 13.9033 87.9072 13.9033 88.6934V93H12.6875V84.9727H13.6909L13.83 86.4595H13.8886C14.1865 85.937 14.5454 85.5342 14.9653 85.251C15.3852 84.9678 15.8466 84.8262 16.3496 84.8262ZM22.2016 93.1465C21.0151 93.1465 20.0776 92.7852 19.3891 92.0625C18.7055 91.3398 18.3637 90.3364 18.3637 89.0522C18.3637 87.7583 18.6811 86.7305 19.3159 85.9688C19.9555 85.207 20.8125 84.8262 21.8867 84.8262C22.8925 84.8262 23.6884 85.1582 24.2744 85.8223C24.8603 86.4814 25.1533 87.353 25.1533 88.437V89.2061H19.6235C19.6479 90.1484 19.8847 90.8638 20.3339 91.3521C20.788 91.8403 21.4253 92.0845 22.2456 92.0845C23.1098 92.0845 23.9643 91.9038 24.809 91.5425V92.6265C24.3794 92.812 23.9716 92.9438 23.5859 93.022C23.205 93.105 22.7436 93.1465 22.2016 93.1465ZM21.872 85.8442C21.2275 85.8442 20.7124 86.0542 20.3266 86.4741C19.9458 86.894 19.7212 87.4751 19.6528 88.2173H23.8496C23.8496 87.4507 23.6787 86.8647 23.3369 86.4595C22.9951 86.0493 22.5068 85.8442 21.872 85.8442ZM32.1699 93L31.9282 91.8574H31.8696C31.4692 92.3604 31.0688 92.7021 30.6684 92.8828C30.2729 93.0586 29.7773 93.1465 29.1816 93.1465C28.3857 93.1465 27.7607 92.9414 27.3066 92.5312C26.8574 92.1211 26.6328 91.5376 26.6328 90.7808C26.6328 89.1597 27.9292 88.3101 30.5219 88.2319L31.8842 88.188V87.6899C31.8842 87.0601 31.7475 86.5962 31.4741 86.2983C31.2055 85.9956 30.7734 85.8442 30.1777 85.8442C29.5088 85.8442 28.7519 86.0493 27.9072 86.4595L27.5337 85.5293C27.9292 85.3145 28.3613 85.146 28.83 85.0239C29.3037 84.9019 29.7773 84.8408 30.2509 84.8408C31.208 84.8408 31.916 85.0532 32.375 85.478C32.8388 85.9028 33.0708 86.584 33.0708 87.5215V93H32.1699ZM29.4233 92.1431C30.1801 92.1431 30.7734 91.9355 31.2031 91.5205C31.6377 91.1055 31.8549 90.5244 31.8549 89.7773V89.0522L30.6391 89.1035C29.6723 89.1377 28.9741 89.2891 28.5444 89.5576C28.1196 89.8213 27.9072 90.2339 27.9072 90.7954C27.9072 91.2349 28.039 91.5693 28.3027 91.7988C28.5713 92.0283 28.9448 92.1431 29.4233 92.1431ZM38.1757 92.1431C38.3906 92.1431 38.5981 92.1284 38.7983 92.0991C38.9985 92.0649 39.1572 92.0308 39.2744 91.9966V92.9268C39.1425 92.9902 38.9472 93.0415 38.6884 93.0806C38.4345 93.1245 38.205 93.1465 38 93.1465C36.4472 93.1465 35.6709 92.3286 35.6709 90.6929V85.9175H34.521V85.3315L35.6709 84.8262L36.1836 83.1123H36.8867V84.9727H39.2158V85.9175H36.8867V90.6416C36.8867 91.125 37.0014 91.4961 37.2309 91.7549C37.4604 92.0137 37.7754 92.1431 38.1757 92.1431ZM44.2768 93.1465C43.0903 93.1465 42.1528 92.7852 41.4643 92.0625C40.7807 91.3398 40.4389 90.3364 40.4389 89.0522C40.4389 87.7583 40.7563 86.7305 41.3911 85.9688C42.0307 85.207 42.8877 84.8262 43.9619 84.8262C44.9677 84.8262 45.7636 85.1582 46.3496 85.8223C46.9355 86.4814 47.2285 87.353 47.2285 88.437V89.2061H41.6987C41.7231 90.1484 41.9599 90.8638 42.4091 91.3521C42.8632 91.8403 43.5005 92.0845 44.3208 92.0845C45.185 92.0845 46.0395 91.9038 46.8842 91.5425V92.6265C46.4546 92.812 46.0468 92.9438 45.6611 93.022C45.2802 93.105 44.8188 93.1465 44.2768 93.1465ZM43.9472 85.8442C43.3027 85.8442 42.7876 86.0542 42.4018 86.4741C42.021 86.894 41.7963 87.4751 41.728 88.2173H45.9248C45.9248 87.4507 45.7539 86.8647 45.4121 86.4595C45.0703 86.0493 44.582 85.8442 43.9472 85.8442ZM58.1416 93L57.8999 91.8574H57.8413C57.4409 92.3604 57.0405 92.7021 56.6401 92.8828C56.2446 93.0586 55.749 93.1465 55.1533 93.1465C54.3574 93.1465 53.7324 92.9414 53.2783 92.5312C52.8291 92.1211 52.6045 91.5376 52.6045 90.7808C52.6045 89.1597 53.9008 88.3101 56.4936 88.2319L57.8559 88.188V87.6899C57.8559 87.0601 57.7192 86.5962 57.4458 86.2983C57.1772 85.9956 56.7451 85.8442 56.1494 85.8442C55.4804 85.8442 54.7236 86.0493 53.8789 86.4595L53.5053 85.5293C53.9008 85.3145 54.333 85.146 54.8017 85.0239C55.2754 84.9019 55.749 84.8408 56.2226 84.8408C57.1796 84.8408 57.8877 85.0532 58.3466 85.478C58.8105 85.9028 59.0424 86.584 59.0424 87.5215V93H58.1416ZM55.395 92.1431C56.1518 92.1431 56.7451 91.9355 57.1748 91.5205C57.6093 91.1055 57.8266 90.5244 57.8266 89.7773V89.0522L56.6108 89.1035C55.644 89.1377 54.9458 89.2891 54.5161 89.5576C54.0913 89.8213 53.8789 90.2339 53.8789 90.7954C53.8789 91.2349 54.0107 91.5693 54.2744 91.7988C54.5429 92.0283 54.9165 92.1431 55.395 92.1431ZM64.477 96.6035C64.0131 96.6035 63.6372 96.5425 63.3491 96.4204V95.4316C63.686 95.5293 64.018 95.5781 64.3452 95.5781C64.726 95.5781 65.0044 95.4731 65.1801 95.2632C65.3608 95.0581 65.4511 94.7432 65.4511 94.3184V84.9727H66.667V94.2305C66.667 95.8125 65.937 96.6035 64.477 96.6035ZM65.3486 82.7974C65.3486 82.519 65.417 82.3164 65.5537 82.1895C65.6904 82.0576 65.8613 81.9917 66.0664 81.9917C66.2617 81.9917 66.4301 82.0576 66.5717 82.1895C66.7133 82.3213 66.7841 82.5239 66.7841 82.7974C66.7841 83.0708 66.7133 83.2759 66.5717 83.4126C66.4301 83.5444 66.2617 83.6104 66.0664 83.6104C65.8613 83.6104 65.6904 83.5444 65.5537 83.4126C65.417 83.2759 65.3486 83.0708 65.3486 82.7974ZM76.1738 88.979C76.1738 90.2876 75.8442 91.3105 75.185 92.0479C74.5258 92.7803 73.6152 93.1465 72.4531 93.1465C71.7353 93.1465 71.0981 92.978 70.5415 92.6411C69.9848 92.3042 69.5551 91.8208 69.2524 91.1909C68.9497 90.561 68.7983 89.8237 68.7983 88.979C68.7983 87.6704 69.1255 86.6523 69.7797 85.9248C70.434 85.1924 71.3422 84.8262 72.5044 84.8262C73.6274 84.8262 74.5185 85.1997 75.1777 85.9468C75.8418 86.6938 76.1738 87.7046 76.1738 88.979ZM70.0581 88.979C70.0581 90.0044 70.2631 90.7856 70.6733 91.3228C71.0835 91.8599 71.6865 92.1284 72.4824 92.1284C73.2783 92.1284 73.8813 91.8623 74.2915 91.3301C74.7065 90.793 74.914 90.0093 74.914 88.979C74.914 87.9585 74.7065 87.1846 74.2915 86.6572C73.8813 86.125 73.2734 85.8589 72.4677 85.8589C71.6718 85.8589 71.0713 86.1201 70.666 86.6426C70.2607 87.165 70.0581 87.9438 70.0581 88.979ZM82.0478 84.8408C83.1025 84.8408 83.9204 85.2021 84.5014 85.9248C85.0874 86.6426 85.3803 87.6606 85.3803 88.979C85.3803 90.2974 85.0849 91.3228 84.4941 92.0552C83.9082 92.7827 83.0927 93.1465 82.0478 93.1465C81.5254 93.1465 81.0468 93.0513 80.6123 92.8608C80.1826 92.6655 79.8213 92.3677 79.5283 91.9673H79.4404L79.184 93H78.3125V81.6035H79.5283V84.3721C79.5283 84.9922 79.5088 85.5488 79.4697 86.042H79.5283C80.0947 85.2412 80.9345 84.8408 82.0478 84.8408ZM81.872 85.8589C81.042 85.8589 80.4438 86.0981 80.0776 86.5767C79.7114 87.0503 79.5283 87.8511 79.5283 88.979C79.5283 90.1069 79.7163 90.915 80.0922 91.4033C80.4682 91.8867 81.0713 92.1284 81.9013 92.1284C82.6484 92.1284 83.205 91.8574 83.5713 91.3154C83.9375 90.7686 84.1206 89.9849 84.1206 88.9644C84.1206 87.9194 83.9375 87.1406 83.5713 86.6279C83.205 86.1152 82.6386 85.8589 81.872 85.8589ZM95.1435 93.1465C94.6211 93.1465 94.1425 93.0513 93.708 92.8608C93.2783 92.6655 92.917 92.3677 92.624 91.9673H92.5361C92.5947 92.436 92.624 92.8804 92.624 93.3003V96.6035H91.4082V84.9727H92.3969L92.5654 86.0713H92.624C92.9365 85.6318 93.3003 85.3145 93.7153 85.1191C94.1303 84.9238 94.6064 84.8262 95.1435 84.8262C96.208 84.8262 97.0283 85.1899 97.6045 85.9175C98.1855 86.645 98.476 87.6655 98.476 88.979C98.476 90.2974 98.1806 91.3228 97.5898 92.0552C97.0039 92.7827 96.1884 93.1465 95.1435 93.1465ZM94.9677 85.8589C94.1474 85.8589 93.5542 86.0859 93.188 86.54C92.8217 86.9941 92.6338 87.7168 92.624 88.708V88.979C92.624 90.1069 92.812 90.915 93.188 91.4033C93.5639 91.8867 94.167 92.1284 94.997 92.1284C95.6904 92.1284 96.2324 91.8477 96.623 91.2861C97.0185 90.7246 97.2163 89.9507 97.2163 88.9644C97.2163 87.9634 97.0185 87.1968 96.623 86.6646C96.2324 86.1274 95.6806 85.8589 94.9677 85.8589ZM104.269 84.8262C104.626 84.8262 104.946 84.8555 105.229 84.9141L105.061 86.042C104.728 85.9688 104.436 85.9321 104.182 85.9321C103.532 85.9321 102.976 86.1958 102.512 86.7231C102.053 87.2505 101.823 87.9072 101.823 88.6934V93H100.607V84.9727H101.611L101.75 86.4595H101.809C102.106 85.937 102.465 85.5342 102.885 85.251C103.305 84.9678 103.767 84.8262 104.269 84.8262ZM113.659 88.979C113.659 90.2876 113.33 91.3105 112.67 92.0479C112.011 92.7803 111.101 93.1465 109.938 93.1465C109.221 93.1465 108.583 92.978 108.027 92.6411C107.47 92.3042 107.04 91.8208 106.738 91.1909C106.435 90.561 106.284 89.8237 106.284 88.979C106.284 87.6704 106.611 86.6523 107.265 85.9248C107.919 85.1924 108.828 84.8262 109.99 84.8262C111.113 84.8262 112.004 85.1997 112.663 85.9468C113.327 86.6938 113.659 87.7046 113.659 88.979ZM107.543 88.979C107.543 90.0044 107.748 90.7856 108.159 91.3228C108.569 91.8599 109.172 92.1284 109.968 92.1284C110.764 92.1284 111.367 91.8623 111.777 91.3301C112.192 90.793 112.399 90.0093 112.399 88.979C112.399 87.9585 112.192 87.1846 111.777 86.6572C111.367 86.125 110.759 85.8589 109.953 85.8589C109.157 85.8589 108.557 86.1201 108.151 86.6426C107.746 87.165 107.543 87.9438 107.543 88.979ZM119.416 85.9175H117.373V93H116.157V85.9175H114.721V85.3682L116.157 84.9287V84.4819C116.157 82.5093 117.019 81.5229 118.742 81.5229C119.167 81.5229 119.665 81.6084 120.236 81.7793L119.921 82.7534C119.453 82.6021 119.052 82.5264 118.72 82.5264C118.261 82.5264 117.922 82.6802 117.702 82.9878C117.482 83.2905 117.373 83.7788 117.373 84.4526V84.9727H119.416V85.9175ZM122.097 93H120.881V84.9727H122.097V93ZM120.778 82.7974C120.778 82.519 120.847 82.3164 120.983 82.1895C121.12 82.0576 121.291 81.9917 121.496 81.9917C121.691 81.9917 121.86 82.0576 122.001 82.1895C122.143 82.3213 122.214 82.5239 122.214 82.7974C122.214 83.0708 122.143 83.2759 122.001 83.4126C121.86 83.5444 121.691 83.6104 121.496 83.6104C121.291 83.6104 121.12 83.5444 120.983 83.4126C120.847 83.2759 120.778 83.0708 120.778 82.7974ZM125.891 93H124.675V81.6035H125.891V93ZM131.86 93.1465C130.673 93.1465 129.736 92.7852 129.047 92.0625C128.364 91.3398 128.022 90.3364 128.022 89.0522C128.022 87.7583 128.339 86.7305 128.974 85.9688C129.614 85.207 130.471 84.8262 131.545 84.8262C132.551 84.8262 133.347 85.1582 133.933 85.8223C134.519 86.4814 134.811 87.353 134.811 88.437V89.2061H129.282C129.306 90.1484 129.543 90.8638 129.992 91.3521C130.446 91.8403 131.083 92.0845 131.904 92.0845C132.768 92.0845 133.623 91.9038 134.467 91.5425V92.6265C134.038 92.812 133.63 92.9438 133.244 93.022C132.863 93.105 132.402 93.1465 131.86 93.1465ZM131.53 85.8442C130.886 85.8442 130.371 86.0542 129.985 86.4741C129.604 86.894 129.379 87.4751 129.311 88.2173H133.508C133.508 87.4507 133.337 86.8647 132.995 86.4595C132.653 86.0493 132.165 85.8442 131.53 85.8442Z" fill="black"/>
<path d="M252.011 211V200.292H253.256V211H252.011ZM261.511 211V205.807C261.511 205.153 261.362 204.665 261.064 204.342C260.766 204.02 260.3 203.859 259.665 203.859C258.825 203.859 258.21 204.086 257.819 204.54C257.429 204.994 257.233 205.744 257.233 206.789V211H256.018V202.973H257.006L257.204 204.071H257.263C257.512 203.676 257.861 203.371 258.31 203.156C258.759 202.936 259.26 202.826 259.811 202.826C260.778 202.826 261.506 203.061 261.994 203.529C262.482 203.993 262.727 204.738 262.727 205.763V211H261.511ZM270.695 209.923H270.629C270.068 210.739 269.228 211.146 268.11 211.146C267.06 211.146 266.242 210.788 265.656 210.07C265.075 209.352 264.785 208.332 264.785 207.008C264.785 205.685 265.078 204.657 265.664 203.925C266.249 203.192 267.065 202.826 268.11 202.826C269.199 202.826 270.034 203.222 270.615 204.013H270.71L270.659 203.434L270.629 202.87V199.604H271.845V211H270.856L270.695 209.923ZM268.264 210.128C269.094 210.128 269.694 209.904 270.065 209.455C270.441 209 270.629 208.271 270.629 207.265V207.008C270.629 205.871 270.439 205.06 270.058 204.577C269.682 204.088 269.079 203.844 268.249 203.844C267.536 203.844 266.989 204.123 266.608 204.679C266.232 205.231 266.044 206.012 266.044 207.023C266.044 208.048 266.232 208.822 266.608 209.345C266.984 209.867 267.536 210.128 268.264 210.128ZM275.646 211H274.431V202.973H275.646V211ZM274.328 200.797C274.328 200.519 274.396 200.316 274.533 200.189C274.67 200.058 274.841 199.992 275.046 199.992C275.241 199.992 275.41 200.058 275.551 200.189C275.693 200.321 275.764 200.524 275.764 200.797C275.764 201.071 275.693 201.276 275.551 201.413C275.41 201.544 275.241 201.61 275.046 201.61C274.841 201.61 274.67 201.544 274.533 201.413C274.396 201.276 274.328 201.071 274.328 200.797ZM279.982 211L276.936 202.973H278.239L279.968 207.733C280.358 208.847 280.588 209.569 280.656 209.901H280.715C280.769 209.643 280.937 209.108 281.22 208.297C281.508 207.482 282.15 205.707 283.146 202.973H284.45L281.403 211H279.982ZM286.955 211H285.739V202.973H286.955V211ZM285.637 200.797C285.637 200.519 285.705 200.316 285.842 200.189C285.978 200.058 286.149 199.992 286.354 199.992C286.55 199.992 286.718 200.058 286.86 200.189C287.001 200.321 287.072 200.524 287.072 200.797C287.072 201.071 287.001 201.276 286.86 201.413C286.718 201.544 286.55 201.61 286.354 201.61C286.149 201.61 285.978 201.544 285.842 201.413C285.705 201.276 285.637 201.071 285.637 200.797ZM294.997 209.923H294.931C294.37 210.739 293.53 211.146 292.412 211.146C291.362 211.146 290.544 210.788 289.958 210.07C289.377 209.352 289.086 208.332 289.086 207.008C289.086 205.685 289.379 204.657 289.965 203.925C290.551 203.192 291.367 202.826 292.412 202.826C293.5 202.826 294.335 203.222 294.916 204.013H295.012L294.96 203.434L294.931 202.87V199.604H296.147V211H295.158L294.997 209.923ZM292.565 210.128C293.395 210.128 293.996 209.904 294.367 209.455C294.743 209 294.931 208.271 294.931 207.265V207.008C294.931 205.871 294.741 205.06 294.36 204.577C293.984 204.088 293.381 203.844 292.551 203.844C291.838 203.844 291.291 204.123 290.91 204.679C290.534 205.231 290.346 206.012 290.346 207.023C290.346 208.048 290.534 208.822 290.91 209.345C291.286 209.867 291.838 210.128 292.565 210.128ZM299.875 202.973V208.18C299.875 208.834 300.024 209.323 300.322 209.645C300.62 209.967 301.086 210.128 301.721 210.128C302.561 210.128 303.173 209.899 303.559 209.44C303.95 208.981 304.145 208.231 304.145 207.191V202.973H305.361V211H304.357L304.182 209.923H304.116C303.867 210.319 303.52 210.622 303.076 210.832C302.636 211.042 302.133 211.146 301.567 211.146C300.59 211.146 299.858 210.915 299.37 210.451C298.886 209.987 298.644 209.245 298.644 208.224V202.973H299.875ZM312.883 211L312.641 209.857H312.582C312.182 210.36 311.782 210.702 311.381 210.883C310.986 211.059 310.49 211.146 309.894 211.146C309.099 211.146 308.474 210.941 308.019 210.531C307.57 210.121 307.346 209.538 307.346 208.781C307.346 207.16 308.642 206.31 311.235 206.232L312.597 206.188V205.69C312.597 205.06 312.46 204.596 312.187 204.298C311.918 203.996 311.486 203.844 310.891 203.844C310.222 203.844 309.465 204.049 308.62 204.459L308.247 203.529C308.642 203.314 309.074 203.146 309.543 203.024C310.017 202.902 310.49 202.841 310.964 202.841C311.921 202.841 312.629 203.053 313.088 203.478C313.552 203.903 313.784 204.584 313.784 205.521V211H312.883ZM310.136 210.143C310.893 210.143 311.486 209.936 311.916 209.521C312.351 209.105 312.568 208.524 312.568 207.777V207.052L311.352 207.104C310.385 207.138 309.687 207.289 309.257 207.558C308.832 207.821 308.62 208.234 308.62 208.795C308.62 209.235 308.752 209.569 309.016 209.799C309.284 210.028 309.658 210.143 310.136 210.143ZM317.512 211H316.296V199.604H317.512V211ZM327.194 211.146C326.032 211.146 325.131 210.79 324.492 210.077C323.857 209.359 323.54 208.346 323.54 207.038C323.54 205.695 323.862 204.657 324.506 203.925C325.156 203.192 326.079 202.826 327.275 202.826C327.661 202.826 328.046 202.868 328.432 202.951C328.818 203.034 329.121 203.131 329.34 203.244L328.967 204.276C328.698 204.169 328.405 204.081 328.088 204.013C327.77 203.939 327.49 203.903 327.246 203.903C325.615 203.903 324.799 204.943 324.799 207.023C324.799 208.009 324.997 208.766 325.393 209.293C325.793 209.821 326.384 210.084 327.165 210.084C327.834 210.084 328.52 209.94 329.223 209.652V210.729C328.686 211.007 328.01 211.146 327.194 211.146ZM338.063 206.979C338.063 208.288 337.734 209.311 337.075 210.048C336.415 210.78 335.505 211.146 334.343 211.146C333.625 211.146 332.988 210.978 332.431 210.641C331.874 210.304 331.445 209.821 331.142 209.191C330.839 208.561 330.688 207.824 330.688 206.979C330.688 205.67 331.015 204.652 331.669 203.925C332.324 203.192 333.232 202.826 334.394 202.826C335.517 202.826 336.408 203.2 337.067 203.947C337.731 204.694 338.063 205.705 338.063 206.979ZM331.948 206.979C331.948 208.004 332.153 208.786 332.563 209.323C332.973 209.86 333.576 210.128 334.372 210.128C335.168 210.128 335.771 209.862 336.181 209.33C336.596 208.793 336.804 208.009 336.804 206.979C336.804 205.958 336.596 205.185 336.181 204.657C335.771 204.125 335.163 203.859 334.357 203.859C333.561 203.859 332.961 204.12 332.556 204.643C332.15 205.165 331.948 205.944 331.948 206.979ZM341.345 202.973V208.18C341.345 208.834 341.494 209.323 341.791 209.645C342.089 209.967 342.556 210.128 343.19 210.128C344.03 210.128 344.643 209.899 345.029 209.44C345.419 208.981 345.615 208.231 345.615 207.191V202.973H346.831V211H345.827L345.651 209.923H345.585C345.336 210.319 344.99 210.622 344.545 210.832C344.106 211.042 343.603 211.146 343.037 211.146C342.06 211.146 341.328 210.915 340.839 210.451C340.356 209.987 340.114 209.245 340.114 208.224V202.973H341.345ZM353.078 202.826C353.435 202.826 353.754 202.855 354.038 202.914L353.869 204.042C353.537 203.969 353.244 203.932 352.99 203.932C352.341 203.932 351.784 204.196 351.32 204.723C350.861 205.25 350.632 205.907 350.632 206.693V211H349.416V202.973H350.419L350.559 204.459H350.617C350.915 203.937 351.274 203.534 351.694 203.251C352.114 202.968 352.575 202.826 353.078 202.826ZM360.717 208.81C360.717 209.557 360.439 210.133 359.882 210.539C359.326 210.944 358.544 211.146 357.539 211.146C356.474 211.146 355.644 210.978 355.048 210.641V209.513C355.434 209.708 355.847 209.862 356.286 209.975C356.73 210.087 357.158 210.143 357.568 210.143C358.203 210.143 358.691 210.043 359.033 209.843C359.374 209.638 359.545 209.328 359.545 208.913C359.545 208.6 359.409 208.334 359.135 208.114C358.867 207.89 358.339 207.626 357.553 207.323C356.806 207.045 356.274 206.803 355.957 206.598C355.644 206.388 355.41 206.151 355.253 205.888C355.102 205.624 355.026 205.309 355.026 204.943C355.026 204.289 355.292 203.773 355.825 203.397C356.357 203.017 357.087 202.826 358.015 202.826C358.879 202.826 359.724 203.002 360.549 203.354L360.117 204.342C359.311 204.01 358.581 203.844 357.927 203.844C357.351 203.844 356.916 203.935 356.623 204.115C356.33 204.296 356.184 204.545 356.184 204.862C356.184 205.077 356.237 205.26 356.345 205.412C356.457 205.563 356.635 205.707 356.879 205.844C357.123 205.98 357.592 206.178 358.286 206.437C359.238 206.784 359.88 207.133 360.212 207.484C360.549 207.836 360.717 208.278 360.717 208.81ZM366.093 211.146C364.907 211.146 363.969 210.785 363.281 210.062C362.597 209.34 362.255 208.336 362.255 207.052C362.255 205.758 362.573 204.73 363.207 203.969C363.847 203.207 364.704 202.826 365.778 202.826C366.784 202.826 367.58 203.158 368.166 203.822C368.752 204.481 369.045 205.353 369.045 206.437V207.206H363.515C363.54 208.148 363.776 208.864 364.226 209.352C364.68 209.84 365.317 210.084 366.137 210.084C367.001 210.084 367.856 209.904 368.701 209.542V210.626C368.271 210.812 367.863 210.944 367.478 211.022C367.097 211.105 366.635 211.146 366.093 211.146ZM365.764 203.844C365.119 203.844 364.604 204.054 364.218 204.474C363.837 204.894 363.613 205.475 363.544 206.217H367.741C367.741 205.451 367.57 204.865 367.228 204.459C366.887 204.049 366.398 203.844 365.764 203.844ZM376.303 208.81C376.303 209.557 376.025 210.133 375.468 210.539C374.912 210.944 374.13 211.146 373.124 211.146C372.06 211.146 371.23 210.978 370.634 210.641V209.513C371.02 209.708 371.433 209.862 371.872 209.975C372.316 210.087 372.744 210.143 373.154 210.143C373.789 210.143 374.277 210.043 374.619 209.843C374.96 209.638 375.131 209.328 375.131 208.913C375.131 208.6 374.995 208.334 374.721 208.114C374.453 207.89 373.925 207.626 373.139 207.323C372.392 207.045 371.86 206.803 371.542 206.598C371.23 206.388 370.996 206.151 370.839 205.888C370.688 205.624 370.612 205.309 370.612 204.943C370.612 204.289 370.878 203.773 371.411 203.397C371.943 203.017 372.673 202.826 373.601 202.826C374.465 202.826 375.31 203.002 376.135 203.354L375.703 204.342C374.897 204.01 374.167 203.844 373.513 203.844C372.936 203.844 372.502 203.935 372.209 204.115C371.916 204.296 371.769 204.545 371.769 204.862C371.769 205.077 371.823 205.26 371.931 205.412C372.043 205.563 372.221 205.707 372.465 205.844C372.709 205.98 373.178 206.178 373.872 206.437C374.824 206.784 375.466 207.133 375.798 207.484C376.135 207.836 376.303 208.278 376.303 208.81Z" fill="black"/>
<path d="M771.587 280.39H775.227V285.597C774.661 285.778 774.084 285.915 773.498 286.007C772.913 286.1 772.234 286.146 771.462 286.146C769.841 286.146 768.579 285.666 767.676 284.704C766.772 283.737 766.321 282.384 766.321 280.646C766.321 279.533 766.543 278.559 766.987 277.724C767.436 276.884 768.081 276.244 768.921 275.805C769.761 275.36 770.745 275.138 771.873 275.138C773.015 275.138 774.08 275.348 775.066 275.768L774.582 276.867C773.616 276.457 772.686 276.251 771.792 276.251C770.488 276.251 769.47 276.64 768.738 277.416C768.005 278.192 767.639 279.269 767.639 280.646C767.639 282.091 767.991 283.188 768.694 283.935C769.402 284.682 770.439 285.055 771.807 285.055C772.549 285.055 773.274 284.97 773.982 284.799V281.503H771.587V280.39ZM781.013 286.146C779.827 286.146 778.889 285.785 778.201 285.062C777.517 284.34 777.175 283.336 777.175 282.052C777.175 280.758 777.493 279.73 778.127 278.969C778.767 278.207 779.624 277.826 780.698 277.826C781.704 277.826 782.5 278.158 783.086 278.822C783.672 279.481 783.965 280.353 783.965 281.437V282.206H778.435C778.459 283.148 778.696 283.864 779.145 284.352C779.6 284.84 780.237 285.084 781.057 285.084C781.921 285.084 782.776 284.904 783.621 284.542V285.626C783.191 285.812 782.783 285.944 782.397 286.022C782.017 286.105 781.555 286.146 781.013 286.146ZM780.684 278.844C780.039 278.844 779.524 279.054 779.138 279.474C778.757 279.894 778.533 280.475 778.464 281.217H782.661C782.661 280.451 782.49 279.865 782.148 279.459C781.807 279.049 781.318 278.844 780.684 278.844ZM788.638 285.143C788.853 285.143 789.06 285.128 789.26 285.099C789.46 285.065 789.619 285.031 789.736 284.997V285.927C789.604 285.99 789.409 286.042 789.15 286.081C788.896 286.125 788.667 286.146 788.462 286.146C786.909 286.146 786.133 285.329 786.133 283.693V278.917H784.983V278.332L786.133 277.826L786.645 276.112H787.349V277.973H789.678V278.917H787.349V283.642C787.349 284.125 787.463 284.496 787.693 284.755C787.922 285.014 788.237 285.143 788.638 285.143ZM800.181 286L799.939 284.857H799.88C799.48 285.36 799.08 285.702 798.679 285.883C798.284 286.059 797.788 286.146 797.192 286.146C796.396 286.146 795.771 285.941 795.317 285.531C794.868 285.121 794.644 284.538 794.644 283.781C794.644 282.16 795.94 281.31 798.533 281.232L799.895 281.188V280.69C799.895 280.06 799.758 279.596 799.485 279.298C799.216 278.996 798.784 278.844 798.188 278.844C797.519 278.844 796.763 279.049 795.918 279.459L795.544 278.529C795.94 278.314 796.372 278.146 796.841 278.024C797.314 277.902 797.788 277.841 798.262 277.841C799.219 277.841 799.927 278.053 800.386 278.478C800.85 278.903 801.082 279.584 801.082 280.521V286H800.181ZM797.434 285.143C798.191 285.143 798.784 284.936 799.214 284.521C799.648 284.105 799.866 283.524 799.866 282.777V282.052L798.65 282.104C797.683 282.138 796.985 282.289 796.555 282.558C796.13 282.821 795.918 283.234 795.918 283.795C795.918 284.235 796.05 284.569 796.313 284.799C796.582 285.028 796.956 285.143 797.434 285.143ZM806.516 289.604C806.052 289.604 805.676 289.542 805.388 289.42V288.432C805.725 288.529 806.057 288.578 806.384 288.578C806.765 288.578 807.043 288.473 807.219 288.263C807.4 288.058 807.49 287.743 807.49 287.318V277.973H808.706V287.23C808.706 288.812 807.976 289.604 806.516 289.604ZM807.388 275.797C807.388 275.519 807.456 275.316 807.593 275.189C807.729 275.058 807.9 274.992 808.105 274.992C808.301 274.992 808.469 275.058 808.611 275.189C808.752 275.321 808.823 275.524 808.823 275.797C808.823 276.071 808.752 276.276 808.611 276.413C808.469 276.544 808.301 276.61 808.105 276.61C807.9 276.61 807.729 276.544 807.593 276.413C807.456 276.276 807.388 276.071 807.388 275.797ZM818.213 281.979C818.213 283.288 817.883 284.311 817.224 285.048C816.565 285.78 815.654 286.146 814.492 286.146C813.774 286.146 813.137 285.978 812.581 285.641C812.024 285.304 811.594 284.821 811.291 284.191C810.989 283.561 810.837 282.824 810.837 281.979C810.837 280.67 811.165 279.652 811.819 278.925C812.473 278.192 813.381 277.826 814.543 277.826C815.666 277.826 816.558 278.2 817.217 278.947C817.881 279.694 818.213 280.705 818.213 281.979ZM812.097 281.979C812.097 283.004 812.302 283.786 812.712 284.323C813.123 284.86 813.726 285.128 814.521 285.128C815.317 285.128 815.92 284.862 816.331 284.33C816.746 283.793 816.953 283.009 816.953 281.979C816.953 280.958 816.746 280.185 816.331 279.657C815.92 279.125 815.312 278.859 814.507 278.859C813.711 278.859 813.11 279.12 812.705 279.643C812.3 280.165 812.097 280.944 812.097 281.979ZM824.087 277.841C825.142 277.841 825.959 278.202 826.54 278.925C827.126 279.643 827.419 280.661 827.419 281.979C827.419 283.297 827.124 284.323 826.533 285.055C825.947 285.783 825.132 286.146 824.087 286.146C823.564 286.146 823.086 286.051 822.651 285.861C822.222 285.666 821.86 285.368 821.567 284.967H821.479L821.223 286H820.352V274.604H821.567V277.372C821.567 277.992 821.548 278.549 821.509 279.042H821.567C822.134 278.241 822.974 277.841 824.087 277.841ZM823.911 278.859C823.081 278.859 822.483 279.098 822.117 279.577C821.75 280.05 821.567 280.851 821.567 281.979C821.567 283.107 821.755 283.915 822.131 284.403C822.507 284.887 823.11 285.128 823.94 285.128C824.687 285.128 825.244 284.857 825.61 284.315C825.977 283.769 826.16 282.985 826.16 281.964C826.16 280.919 825.977 280.141 825.61 279.628C825.244 279.115 824.678 278.859 823.911 278.859ZM843.679 286V280.778C843.679 280.138 843.542 279.66 843.269 279.342C842.996 279.02 842.571 278.859 841.995 278.859C841.238 278.859 840.679 279.076 840.317 279.511C839.956 279.945 839.775 280.614 839.775 281.518V286H838.56V280.778C838.56 280.138 838.423 279.66 838.149 279.342C837.876 279.02 837.449 278.859 836.868 278.859C836.106 278.859 835.547 279.088 835.19 279.547C834.839 280.001 834.663 280.749 834.663 281.789V286H833.447V277.973H834.436L834.634 279.071H834.692C834.922 278.681 835.244 278.375 835.659 278.156C836.079 277.936 836.548 277.826 837.065 277.826C838.32 277.826 839.141 278.28 839.526 279.188H839.585C839.824 278.769 840.171 278.437 840.625 278.192C841.079 277.948 841.597 277.826 842.178 277.826C843.086 277.826 843.765 278.061 844.214 278.529C844.668 278.993 844.895 279.738 844.895 280.763V286H843.679ZM852.344 286L852.102 284.857H852.043C851.643 285.36 851.243 285.702 850.842 285.883C850.447 286.059 849.951 286.146 849.355 286.146C848.56 286.146 847.935 285.941 847.48 285.531C847.031 285.121 846.807 284.538 846.807 283.781C846.807 282.16 848.103 281.31 850.696 281.232L852.058 281.188V280.69C852.058 280.06 851.921 279.596 851.648 279.298C851.379 278.996 850.947 278.844 850.352 278.844C849.683 278.844 848.926 279.049 848.081 279.459L847.707 278.529C848.103 278.314 848.535 278.146 849.004 278.024C849.478 277.902 849.951 277.841 850.425 277.841C851.382 277.841 852.09 278.053 852.549 278.478C853.013 278.903 853.245 279.584 853.245 280.521V286H852.344ZM849.597 285.143C850.354 285.143 850.947 284.936 851.377 284.521C851.811 284.105 852.029 283.524 852.029 282.777V282.052L850.813 282.104C849.846 282.138 849.148 282.289 848.718 282.558C848.293 282.821 848.081 283.234 848.081 283.795C848.081 284.235 848.213 284.569 848.477 284.799C848.745 285.028 849.119 285.143 849.597 285.143ZM858.35 285.143C858.564 285.143 858.772 285.128 858.972 285.099C859.172 285.065 859.331 285.031 859.448 284.997V285.927C859.316 285.99 859.121 286.042 858.862 286.081C858.608 286.125 858.379 286.146 858.174 286.146C856.621 286.146 855.845 285.329 855.845 283.693V278.917H854.695V278.332L855.845 277.826L856.357 276.112H857.061V277.973H859.39V278.917H857.061V283.642C857.061 284.125 857.175 284.496 857.405 284.755C857.634 285.014 857.949 285.143 858.35 285.143ZM864.268 286.146C863.105 286.146 862.205 285.79 861.565 285.077C860.93 284.359 860.613 283.346 860.613 282.038C860.613 280.695 860.935 279.657 861.58 278.925C862.229 278.192 863.152 277.826 864.348 277.826C864.734 277.826 865.12 277.868 865.505 277.951C865.891 278.034 866.194 278.131 866.414 278.244L866.04 279.276C865.771 279.169 865.478 279.081 865.161 279.013C864.844 278.939 864.563 278.903 864.319 278.903C862.688 278.903 861.873 279.943 861.873 282.023C861.873 283.009 862.07 283.766 862.466 284.293C862.866 284.821 863.457 285.084 864.238 285.084C864.907 285.084 865.593 284.94 866.296 284.652V285.729C865.759 286.007 865.083 286.146 864.268 286.146ZM873.701 286V280.807C873.701 280.153 873.552 279.665 873.254 279.342C872.957 279.02 872.49 278.859 871.855 278.859C871.011 278.859 870.393 279.088 870.002 279.547C869.617 280.006 869.424 280.758 869.424 281.803V286H868.208V274.604H869.424V278.053C869.424 278.468 869.404 278.812 869.365 279.086H869.438C869.678 278.7 870.017 278.397 870.457 278.178C870.901 277.953 871.406 277.841 871.973 277.841C872.954 277.841 873.689 278.075 874.177 278.544C874.67 279.008 874.917 279.748 874.917 280.763V286H873.701Z" fill="black"/>
<path d="M518.16 128V117.292H519.405V128H518.16ZM527.66 128V122.807C527.66 122.153 527.511 121.665 527.213 121.342C526.915 121.02 526.449 120.859 525.814 120.859C524.974 120.859 524.359 121.086 523.968 121.54C523.578 121.994 523.382 122.744 523.382 123.789V128H522.166V119.973H523.155L523.353 121.071H523.412C523.661 120.676 524.01 120.371 524.459 120.156C524.908 119.936 525.409 119.826 525.96 119.826C526.927 119.826 527.655 120.061 528.143 120.529C528.631 120.993 528.875 121.738 528.875 122.763V128H527.66ZM536.844 126.923H536.778C536.217 127.739 535.377 128.146 534.259 128.146C533.209 128.146 532.391 127.788 531.805 127.07C531.224 126.352 530.934 125.332 530.934 124.008C530.934 122.685 531.227 121.657 531.812 120.925C532.398 120.192 533.214 119.826 534.259 119.826C535.348 119.826 536.183 120.222 536.764 121.013H536.859L536.808 120.434L536.778 119.87V116.604H537.994V128H537.005L536.844 126.923ZM534.413 127.128C535.243 127.128 535.843 126.904 536.214 126.455C536.59 126 536.778 125.271 536.778 124.265V124.008C536.778 122.871 536.588 122.06 536.207 121.577C535.831 121.088 535.228 120.844 534.398 120.844C533.685 120.844 533.138 121.123 532.757 121.679C532.381 122.231 532.193 123.012 532.193 124.023C532.193 125.048 532.381 125.822 532.757 126.345C533.133 126.867 533.685 127.128 534.413 127.128ZM541.722 119.973V125.18C541.722 125.834 541.871 126.323 542.169 126.645C542.467 126.967 542.933 127.128 543.568 127.128C544.408 127.128 545.02 126.899 545.406 126.44C545.797 125.981 545.992 125.231 545.992 124.191V119.973H547.208V128H546.205L546.029 126.923H545.963C545.714 127.319 545.367 127.622 544.923 127.832C544.483 128.042 543.98 128.146 543.414 128.146C542.437 128.146 541.705 127.915 541.217 127.451C540.733 126.987 540.492 126.245 540.492 125.224V119.973H541.722ZM554.972 125.81C554.972 126.557 554.693 127.133 554.137 127.539C553.58 127.944 552.799 128.146 551.793 128.146C550.728 128.146 549.898 127.978 549.303 127.641V126.513C549.688 126.708 550.101 126.862 550.54 126.975C550.985 127.087 551.412 127.143 551.822 127.143C552.457 127.143 552.945 127.043 553.287 126.843C553.629 126.638 553.8 126.328 553.8 125.913C553.8 125.6 553.663 125.334 553.39 125.114C553.121 124.89 552.594 124.626 551.808 124.323C551.061 124.045 550.528 123.803 550.211 123.598C549.898 123.388 549.664 123.151 549.508 122.888C549.356 122.624 549.281 122.309 549.281 121.943C549.281 121.289 549.547 120.773 550.079 120.397C550.611 120.017 551.341 119.826 552.269 119.826C553.133 119.826 553.978 120.002 554.803 120.354L554.371 121.342C553.565 121.01 552.835 120.844 552.181 120.844C551.605 120.844 551.17 120.935 550.877 121.115C550.584 121.296 550.438 121.545 550.438 121.862C550.438 122.077 550.492 122.26 550.599 122.412C550.711 122.563 550.89 122.707 551.134 122.844C551.378 122.98 551.847 123.178 552.54 123.437C553.492 123.784 554.134 124.133 554.466 124.484C554.803 124.836 554.972 125.278 554.972 125.81ZM559.549 127.143C559.764 127.143 559.972 127.128 560.172 127.099C560.372 127.065 560.531 127.031 560.648 126.997V127.927C560.516 127.99 560.321 128.042 560.062 128.081C559.808 128.125 559.579 128.146 559.373 128.146C557.821 128.146 557.044 127.329 557.044 125.693V120.917H555.894V120.332L557.044 119.826L557.557 118.112H558.26V119.973H560.589V120.917H558.26V125.642C558.26 126.125 558.375 126.496 558.604 126.755C558.834 127.014 559.149 127.143 559.549 127.143ZM565.921 119.826C566.278 119.826 566.598 119.855 566.881 119.914L566.712 121.042C566.38 120.969 566.087 120.932 565.833 120.932C565.184 120.932 564.627 121.196 564.164 121.723C563.705 122.25 563.475 122.907 563.475 123.693V128H562.259V119.973H563.263L563.402 121.459H563.46C563.758 120.937 564.117 120.534 564.537 120.251C564.957 119.968 565.418 119.826 565.921 119.826ZM567.108 119.973H568.412L570.169 124.55C570.555 125.595 570.794 126.35 570.887 126.813H570.946C571.009 126.564 571.141 126.14 571.341 125.539C571.546 124.934 572.21 123.078 573.333 119.973H574.637L571.187 129.113C570.846 130.017 570.445 130.656 569.986 131.032C569.532 131.413 568.973 131.604 568.309 131.604C567.938 131.604 567.572 131.562 567.21 131.479V130.505C567.479 130.563 567.779 130.593 568.111 130.593C568.946 130.593 569.542 130.124 569.898 129.187L570.345 128.044L567.108 119.973ZM583.045 128.146C581.883 128.146 580.982 127.79 580.343 127.077C579.708 126.359 579.391 125.346 579.391 124.038C579.391 122.695 579.713 121.657 580.357 120.925C581.007 120.192 581.93 119.826 583.126 119.826C583.512 119.826 583.897 119.868 584.283 119.951C584.669 120.034 584.972 120.131 585.191 120.244L584.818 121.276C584.549 121.169 584.256 121.081 583.939 121.013C583.622 120.939 583.341 120.903 583.097 120.903C581.466 120.903 580.65 121.943 580.65 124.023C580.65 125.009 580.848 125.766 581.244 126.293C581.644 126.821 582.235 127.084 583.016 127.084C583.685 127.084 584.371 126.94 585.074 126.652V127.729C584.537 128.007 583.861 128.146 583.045 128.146ZM593.915 123.979C593.915 125.288 593.585 126.311 592.926 127.048C592.267 127.78 591.356 128.146 590.194 128.146C589.476 128.146 588.839 127.978 588.282 127.641C587.726 127.304 587.296 126.821 586.993 126.191C586.69 125.561 586.539 124.824 586.539 123.979C586.539 122.67 586.866 121.652 587.52 120.925C588.175 120.192 589.083 119.826 590.245 119.826C591.368 119.826 592.259 120.2 592.918 120.947C593.582 121.694 593.915 122.705 593.915 123.979ZM587.799 123.979C587.799 125.004 588.004 125.786 588.414 126.323C588.824 126.86 589.427 127.128 590.223 127.128C591.019 127.128 591.622 126.862 592.032 126.33C592.447 125.793 592.655 125.009 592.655 123.979C592.655 122.958 592.447 122.185 592.032 121.657C591.622 121.125 591.014 120.859 590.208 120.859C589.413 120.859 588.812 121.12 588.407 121.643C588.001 122.165 587.799 122.944 587.799 123.979ZM597.196 119.973V125.18C597.196 125.834 597.345 126.323 597.643 126.645C597.94 126.967 598.407 127.128 599.041 127.128C599.881 127.128 600.494 126.899 600.88 126.44C601.27 125.981 601.466 125.231 601.466 124.191V119.973H602.682V128H601.678L601.502 126.923H601.436C601.187 127.319 600.841 127.622 600.396 127.832C599.957 128.042 599.454 128.146 598.888 128.146C597.911 128.146 597.179 127.915 596.69 127.451C596.207 126.987 595.965 126.245 595.965 125.224V119.973H597.196ZM608.929 119.826C609.286 119.826 609.605 119.855 609.889 119.914L609.72 121.042C609.388 120.969 609.095 120.932 608.841 120.932C608.192 120.932 607.635 121.196 607.171 121.723C606.712 122.25 606.483 122.907 606.483 123.693V128H605.267V119.973H606.27L606.41 121.459H606.468C606.766 120.937 607.125 120.534 607.545 120.251C607.965 119.968 608.426 119.826 608.929 119.826ZM616.568 125.81C616.568 126.557 616.29 127.133 615.733 127.539C615.177 127.944 614.395 128.146 613.39 128.146C612.325 128.146 611.495 127.978 610.899 127.641V126.513C611.285 126.708 611.698 126.862 612.137 126.975C612.582 127.087 613.009 127.143 613.419 127.143C614.054 127.143 614.542 127.043 614.884 126.843C615.226 126.638 615.396 126.328 615.396 125.913C615.396 125.6 615.26 125.334 614.986 125.114C614.718 124.89 614.19 124.626 613.404 124.323C612.657 124.045 612.125 123.803 611.808 123.598C611.495 123.388 611.261 123.151 611.104 122.888C610.953 122.624 610.877 122.309 610.877 121.943C610.877 121.289 611.144 120.773 611.676 120.397C612.208 120.017 612.938 119.826 613.866 119.826C614.73 119.826 615.575 120.002 616.4 120.354L615.968 121.342C615.162 121.01 614.432 120.844 613.778 120.844C613.202 120.844 612.767 120.935 612.474 121.115C612.181 121.296 612.035 121.545 612.035 121.862C612.035 122.077 612.088 122.26 612.196 122.412C612.308 122.563 612.486 122.707 612.73 122.844C612.975 122.98 613.443 123.178 614.137 123.437C615.089 123.784 615.731 124.133 616.063 124.484C616.4 124.836 616.568 125.278 616.568 125.81ZM621.944 128.146C620.758 128.146 619.82 127.785 619.132 127.062C618.448 126.34 618.106 125.336 618.106 124.052C618.106 122.758 618.424 121.73 619.059 120.969C619.698 120.207 620.555 119.826 621.629 119.826C622.635 119.826 623.431 120.158 624.017 120.822C624.603 121.481 624.896 122.353 624.896 123.437V124.206H619.366C619.391 125.148 619.627 125.864 620.077 126.352C620.531 126.84 621.168 127.084 621.988 127.084C622.853 127.084 623.707 126.904 624.552 126.542V127.626C624.122 127.812 623.714 127.944 623.329 128.022C622.948 128.105 622.486 128.146 621.944 128.146ZM621.615 120.844C620.97 120.844 620.455 121.054 620.069 121.474C619.688 121.894 619.464 122.475 619.395 123.217H623.592C623.592 122.451 623.421 121.865 623.08 121.459C622.738 121.049 622.249 120.844 621.615 120.844ZM632.154 125.81C632.154 126.557 631.876 127.133 631.319 127.539C630.763 127.944 629.981 128.146 628.976 128.146C627.911 128.146 627.081 127.978 626.485 127.641V126.513C626.871 126.708 627.284 126.862 627.723 126.975C628.167 127.087 628.595 127.143 629.005 127.143C629.64 127.143 630.128 127.043 630.47 126.843C630.811 126.638 630.982 126.328 630.982 125.913C630.982 125.6 630.846 125.334 630.572 125.114C630.304 124.89 629.776 124.626 628.99 124.323C628.243 124.045 627.711 123.803 627.394 123.598C627.081 123.388 626.847 123.151 626.69 122.888C626.539 122.624 626.463 122.309 626.463 121.943C626.463 121.289 626.729 120.773 627.262 120.397C627.794 120.017 628.524 119.826 629.452 119.826C630.316 119.826 631.161 120.002 631.986 120.354L631.554 121.342C630.748 121.01 630.018 120.844 629.364 120.844C628.788 120.844 628.353 120.935 628.06 121.115C627.767 121.296 627.621 121.545 627.621 121.862C627.621 122.077 627.674 122.26 627.782 122.412C627.894 122.563 628.072 122.707 628.316 122.844C628.561 122.98 629.029 123.178 629.723 123.437C630.675 123.784 631.317 124.133 631.649 124.484C631.986 124.836 632.154 125.278 632.154 125.81Z" fill="black"/>
<path d="M1083.22 210.412C1083.22 211.496 1082.84 212.331 1082.1 212.917C1081.37 213.498 1080.31 213.789 1078.93 213.789H1077.67V218H1076.43V207.292H1079.2C1081.88 207.292 1083.22 208.332 1083.22 210.412ZM1077.67 212.719H1078.79C1079.9 212.719 1080.69 212.541 1081.19 212.185C1081.68 211.828 1081.93 211.257 1081.93 210.471C1081.93 209.763 1081.69 209.235 1081.23 208.889C1080.77 208.542 1080.04 208.369 1079.06 208.369H1077.67V212.719ZM1088.94 209.826C1089.3 209.826 1089.62 209.855 1089.9 209.914L1089.73 211.042C1089.4 210.969 1089.11 210.932 1088.86 210.932C1088.21 210.932 1087.65 211.196 1087.19 211.723C1086.73 212.25 1086.5 212.907 1086.5 213.693V218H1085.28V209.973H1086.28L1086.42 211.459H1086.48C1086.78 210.937 1087.14 210.534 1087.56 210.251C1087.98 209.968 1088.44 209.826 1088.94 209.826ZM1094.8 218.146C1093.61 218.146 1092.67 217.785 1091.98 217.062C1091.3 216.34 1090.96 215.336 1090.96 214.052C1090.96 212.758 1091.27 211.73 1091.91 210.969C1092.55 210.207 1093.41 209.826 1094.48 209.826C1095.49 209.826 1096.28 210.158 1096.87 210.822C1097.45 211.481 1097.75 212.353 1097.75 213.437V214.206H1092.22C1092.24 215.148 1092.48 215.864 1092.93 216.352C1093.38 216.84 1094.02 217.084 1094.84 217.084C1095.7 217.084 1096.56 216.904 1097.4 216.542V217.626C1096.97 217.812 1096.57 217.944 1096.18 218.022C1095.8 218.105 1095.34 218.146 1094.8 218.146ZM1094.47 210.844C1093.82 210.844 1093.31 211.054 1092.92 211.474C1092.54 211.894 1092.31 212.475 1092.25 213.217H1096.44C1096.44 212.451 1096.27 211.865 1095.93 211.459C1095.59 211.049 1095.1 210.844 1094.47 210.844ZM1103.56 218.146C1103.04 218.146 1102.56 218.051 1102.13 217.861C1101.7 217.666 1101.34 217.368 1101.04 216.967H1100.96C1101.01 217.436 1101.04 217.88 1101.04 218.3V221.604H1099.83V209.973H1100.82L1100.98 211.071H1101.04C1101.36 210.632 1101.72 210.314 1102.13 210.119C1102.55 209.924 1103.03 209.826 1103.56 209.826C1104.63 209.826 1105.45 210.19 1106.02 210.917C1106.6 211.645 1106.9 212.666 1106.9 213.979C1106.9 215.297 1106.6 216.323 1106.01 217.055C1105.42 217.783 1104.61 218.146 1103.56 218.146ZM1103.39 210.859C1102.57 210.859 1101.97 211.086 1101.61 211.54C1101.24 211.994 1101.05 212.717 1101.04 213.708V213.979C1101.04 215.107 1101.23 215.915 1101.61 216.403C1101.98 216.887 1102.59 217.128 1103.42 217.128C1104.11 217.128 1104.65 216.848 1105.04 216.286C1105.44 215.725 1105.64 214.951 1105.64 213.964C1105.64 212.963 1105.44 212.197 1105.04 211.665C1104.65 211.127 1104.1 210.859 1103.39 210.859ZM1113.96 218L1113.72 216.857H1113.66C1113.26 217.36 1112.86 217.702 1112.46 217.883C1112.07 218.059 1111.57 218.146 1110.97 218.146C1110.18 218.146 1109.55 217.941 1109.1 217.531C1108.65 217.121 1108.43 216.538 1108.43 215.781C1108.43 214.16 1109.72 213.31 1112.31 213.232L1113.68 213.188V212.69C1113.68 212.06 1113.54 211.596 1113.27 211.298C1113 210.996 1112.57 210.844 1111.97 210.844C1111.3 210.844 1110.54 211.049 1109.7 211.459L1109.33 210.529C1109.72 210.314 1110.15 210.146 1110.62 210.024C1111.1 209.902 1111.57 209.841 1112.04 209.841C1113 209.841 1113.71 210.053 1114.17 210.478C1114.63 210.903 1114.86 211.584 1114.86 212.521V218H1113.96ZM1111.22 217.143C1111.97 217.143 1112.57 216.936 1113 216.521C1113.43 216.105 1113.65 215.524 1113.65 214.777V214.052L1112.43 214.104C1111.47 214.138 1110.77 214.289 1110.34 214.558C1109.91 214.821 1109.7 215.234 1109.7 215.795C1109.7 216.235 1109.83 216.569 1110.1 216.799C1110.36 217.028 1110.74 217.143 1111.22 217.143ZM1121.04 209.826C1121.39 209.826 1121.71 209.855 1122 209.914L1121.83 211.042C1121.5 210.969 1121.2 210.932 1120.95 210.932C1120.3 210.932 1119.74 211.196 1119.28 211.723C1118.82 212.25 1118.59 212.907 1118.59 213.693V218H1117.38V209.973H1118.38L1118.52 211.459H1118.58C1118.87 210.937 1119.23 210.534 1119.65 210.251C1120.07 209.968 1120.54 209.826 1121.04 209.826ZM1126.89 218.146C1125.7 218.146 1124.77 217.785 1124.08 217.062C1123.39 216.34 1123.05 215.336 1123.05 214.052C1123.05 212.758 1123.37 211.73 1124 210.969C1124.64 210.207 1125.5 209.826 1126.58 209.826C1127.58 209.826 1128.38 210.158 1128.96 210.822C1129.55 211.481 1129.84 212.353 1129.84 213.437V214.206H1124.31C1124.34 215.148 1124.57 215.864 1125.02 216.352C1125.48 216.84 1126.11 217.084 1126.93 217.084C1127.8 217.084 1128.65 216.904 1129.5 216.542V217.626C1129.07 217.812 1128.66 217.944 1128.27 218.022C1127.89 218.105 1127.43 218.146 1126.89 218.146ZM1126.56 210.844C1125.92 210.844 1125.4 211.054 1125.02 211.474C1124.63 211.894 1124.41 212.475 1124.34 213.217H1128.54C1128.54 212.451 1128.37 211.865 1128.03 211.459C1127.68 211.049 1127.2 210.844 1126.56 210.844ZM1139.44 210.917H1137.39V218H1136.18V210.917H1134.74V210.368L1136.18 209.929V209.482C1136.18 207.509 1137.04 206.523 1138.76 206.523C1139.19 206.523 1139.69 206.608 1140.26 206.779L1139.94 207.753C1139.47 207.602 1139.07 207.526 1138.74 207.526C1138.28 207.526 1137.94 207.68 1137.72 207.988C1137.5 208.291 1137.39 208.779 1137.39 209.453V209.973H1139.44V210.917ZM1147.83 213.979C1147.83 215.288 1147.5 216.311 1146.84 217.048C1146.18 217.78 1145.27 218.146 1144.11 218.146C1143.39 218.146 1142.75 217.978 1142.2 217.641C1141.64 217.304 1141.21 216.821 1140.91 216.191C1140.61 215.561 1140.45 214.824 1140.45 213.979C1140.45 212.67 1140.78 211.652 1141.44 210.925C1142.09 210.192 1143 209.826 1144.16 209.826C1145.28 209.826 1146.17 210.2 1146.83 210.947C1147.5 211.694 1147.83 212.705 1147.83 213.979ZM1141.71 213.979C1141.71 215.004 1141.92 215.786 1142.33 216.323C1142.74 216.86 1143.34 217.128 1144.14 217.128C1144.93 217.128 1145.54 216.862 1145.95 216.33C1146.36 215.793 1146.57 215.009 1146.57 213.979C1146.57 212.958 1146.36 212.185 1145.95 211.657C1145.54 211.125 1144.93 210.859 1144.12 210.859C1143.33 210.859 1142.73 211.12 1142.32 211.643C1141.92 212.165 1141.71 212.944 1141.71 213.979ZM1153.63 209.826C1153.99 209.826 1154.31 209.855 1154.59 209.914L1154.42 211.042C1154.09 210.969 1153.8 210.932 1153.54 210.932C1152.89 210.932 1152.34 211.196 1151.87 211.723C1151.41 212.25 1151.18 212.907 1151.18 213.693V218H1149.97V209.973H1150.97L1151.11 211.459H1151.17C1151.47 210.937 1151.83 210.534 1152.25 210.251C1152.67 209.968 1153.13 209.826 1153.63 209.826ZM1162.58 217.143C1162.8 217.143 1163 217.128 1163.2 217.099C1163.4 217.065 1163.56 217.031 1163.68 216.997V217.927C1163.55 217.99 1163.35 218.042 1163.09 218.081C1162.84 218.125 1162.61 218.146 1162.41 218.146C1160.85 218.146 1160.08 217.329 1160.08 215.693V210.917H1158.93V210.332L1160.08 209.826L1160.59 208.112H1161.29V209.973H1163.62V210.917H1161.29V215.642C1161.29 216.125 1161.41 216.496 1161.64 216.755C1161.87 217.014 1162.18 217.143 1162.58 217.143ZM1170.78 218V212.807C1170.78 212.153 1170.64 211.665 1170.34 211.342C1170.04 211.02 1169.57 210.859 1168.94 210.859C1168.09 210.859 1167.48 211.088 1167.09 211.547C1166.7 212.006 1166.51 212.758 1166.51 213.803V218H1165.29V206.604H1166.51V210.053C1166.51 210.468 1166.49 210.812 1166.45 211.086H1166.52C1166.76 210.7 1167.1 210.397 1167.54 210.178C1167.98 209.953 1168.49 209.841 1169.06 209.841C1170.04 209.841 1170.77 210.075 1171.26 210.544C1171.75 211.008 1172 211.748 1172 212.763V218H1170.78ZM1177.9 218.146C1176.71 218.146 1175.77 217.785 1175.08 217.062C1174.4 216.34 1174.06 215.336 1174.06 214.052C1174.06 212.758 1174.38 211.73 1175.01 210.969C1175.65 210.207 1176.51 209.826 1177.58 209.826C1178.59 209.826 1179.38 210.158 1179.97 210.822C1180.55 211.481 1180.85 212.353 1180.85 213.437V214.206H1175.32C1175.34 215.148 1175.58 215.864 1176.03 216.352C1176.48 216.84 1177.12 217.084 1177.94 217.084C1178.8 217.084 1179.66 216.904 1180.5 216.542V217.626C1180.07 217.812 1179.67 217.944 1179.28 218.022C1178.9 218.105 1178.44 218.146 1177.9 218.146ZM1177.57 210.844C1176.92 210.844 1176.41 211.054 1176.02 211.474C1175.64 211.894 1175.42 212.475 1175.35 213.217H1179.54C1179.54 212.451 1179.37 211.865 1179.03 211.459C1178.69 211.049 1178.2 210.844 1177.57 210.844ZM1085.45 241.604C1084.99 241.604 1084.61 241.542 1084.32 241.42V240.432C1084.66 240.529 1084.99 240.578 1085.32 240.578C1085.7 240.578 1085.98 240.473 1086.15 240.263C1086.33 240.058 1086.42 239.743 1086.42 239.318V229.973H1087.64V239.23C1087.64 240.812 1086.91 241.604 1085.45 241.604ZM1086.32 227.797C1086.32 227.519 1086.39 227.316 1086.53 227.189C1086.66 227.058 1086.83 226.992 1087.04 226.992C1087.23 226.992 1087.4 227.058 1087.54 227.189C1087.69 227.321 1087.76 227.524 1087.76 227.797C1087.76 228.071 1087.69 228.276 1087.54 228.413C1087.4 228.544 1087.23 228.61 1087.04 228.61C1086.83 228.61 1086.66 228.544 1086.53 228.413C1086.39 228.276 1086.32 228.071 1086.32 227.797ZM1097.15 233.979C1097.15 235.288 1096.82 236.311 1096.16 237.048C1095.5 237.78 1094.59 238.146 1093.43 238.146C1092.71 238.146 1092.07 237.978 1091.51 237.641C1090.96 237.304 1090.53 236.821 1090.23 236.191C1089.92 235.561 1089.77 234.824 1089.77 233.979C1089.77 232.67 1090.1 231.652 1090.75 230.925C1091.41 230.192 1092.31 229.826 1093.48 229.826C1094.6 229.826 1095.49 230.2 1096.15 230.947C1096.81 231.694 1097.15 232.705 1097.15 233.979ZM1091.03 233.979C1091.03 235.004 1091.24 235.786 1091.65 236.323C1092.06 236.86 1092.66 237.128 1093.46 237.128C1094.25 237.128 1094.85 236.862 1095.26 236.33C1095.68 235.793 1095.89 235.009 1095.89 233.979C1095.89 232.958 1095.68 232.185 1095.26 231.657C1094.85 231.125 1094.25 230.859 1093.44 230.859C1092.64 230.859 1092.04 231.12 1091.64 231.643C1091.23 232.165 1091.03 232.944 1091.03 233.979ZM1103.02 229.841C1104.08 229.841 1104.89 230.202 1105.47 230.925C1106.06 231.643 1106.35 232.661 1106.35 233.979C1106.35 235.297 1106.06 236.323 1105.47 237.055C1104.88 237.783 1104.07 238.146 1103.02 238.146C1102.5 238.146 1102.02 238.051 1101.58 237.861C1101.16 237.666 1100.79 237.368 1100.5 236.967H1100.41L1100.16 238H1099.29V226.604H1100.5V229.372C1100.5 229.992 1100.48 230.549 1100.44 231.042H1100.5C1101.07 230.241 1101.91 229.841 1103.02 229.841ZM1102.84 230.859C1102.01 230.859 1101.42 231.098 1101.05 231.577C1100.68 232.05 1100.5 232.851 1100.5 233.979C1100.5 235.107 1100.69 235.915 1101.06 236.403C1101.44 236.887 1102.04 237.128 1102.87 237.128C1103.62 237.128 1104.18 236.857 1104.54 236.315C1104.91 235.769 1105.09 234.985 1105.09 233.964C1105.09 232.919 1104.91 232.141 1104.54 231.628C1104.18 231.115 1103.61 230.859 1102.84 230.859ZM1113.6 238H1112.38V229.973H1113.6V238ZM1112.28 227.797C1112.28 227.519 1112.35 227.316 1112.48 227.189C1112.62 227.058 1112.79 226.992 1113 226.992C1113.19 226.992 1113.36 227.058 1113.5 227.189C1113.64 227.321 1113.71 227.524 1113.71 227.797C1113.71 228.071 1113.64 228.276 1113.5 228.413C1113.36 228.544 1113.19 228.61 1113 228.61C1112.79 228.61 1112.62 228.544 1112.48 228.413C1112.35 228.276 1112.28 228.071 1112.28 227.797ZM1121.67 238V232.807C1121.67 232.153 1121.52 231.665 1121.22 231.342C1120.92 231.02 1120.46 230.859 1119.82 230.859C1118.98 230.859 1118.37 231.086 1117.98 231.54C1117.59 231.994 1117.39 232.744 1117.39 233.789V238H1116.17V229.973H1117.16L1117.36 231.071H1117.42C1117.67 230.676 1118.02 230.371 1118.47 230.156C1118.92 229.936 1119.42 229.826 1119.97 229.826C1120.94 229.826 1121.66 230.061 1122.15 230.529C1122.64 230.993 1122.88 231.738 1122.88 232.763V238H1121.67ZM1127.98 237.143C1128.2 237.143 1128.4 237.128 1128.6 237.099C1128.8 237.065 1128.96 237.031 1129.08 236.997V237.927C1128.95 237.99 1128.75 238.042 1128.49 238.081C1128.24 238.125 1128.01 238.146 1127.81 238.146C1126.25 238.146 1125.48 237.329 1125.48 235.693V230.917H1124.33V230.332L1125.48 229.826L1125.99 228.112H1126.69V229.973H1129.02V230.917H1126.69V235.642C1126.69 236.125 1126.81 236.496 1127.04 236.755C1127.27 237.014 1127.58 237.143 1127.98 237.143ZM1134.08 238.146C1132.9 238.146 1131.96 237.785 1131.27 237.062C1130.59 236.34 1130.24 235.336 1130.24 234.052C1130.24 232.758 1130.56 231.73 1131.2 230.969C1131.84 230.207 1132.69 229.826 1133.77 229.826C1134.77 229.826 1135.57 230.158 1136.16 230.822C1136.74 231.481 1137.03 232.353 1137.03 233.437V234.206H1131.5C1131.53 235.148 1131.77 235.864 1132.21 236.352C1132.67 236.84 1133.31 237.084 1134.13 237.084C1134.99 237.084 1135.85 236.904 1136.69 236.542V237.626C1136.26 237.812 1135.85 237.944 1135.47 238.022C1135.09 238.105 1134.62 238.146 1134.08 238.146ZM1133.75 230.844C1133.11 230.844 1132.59 231.054 1132.21 231.474C1131.83 231.894 1131.6 232.475 1131.53 233.217H1135.73C1135.73 232.451 1135.56 231.865 1135.22 231.459C1134.88 231.049 1134.39 230.844 1133.75 230.844ZM1142.78 229.826C1143.13 229.826 1143.45 229.855 1143.74 229.914L1143.57 231.042C1143.24 230.969 1142.94 230.932 1142.69 230.932C1142.04 230.932 1141.48 231.196 1141.02 231.723C1140.56 232.25 1140.33 232.907 1140.33 233.693V238H1139.11V229.973H1140.12L1140.26 231.459H1140.32C1140.61 230.937 1140.97 230.534 1141.39 230.251C1141.81 229.968 1142.27 229.826 1142.78 229.826ZM1147 238L1143.95 229.973H1145.25L1146.98 234.733C1147.37 235.847 1147.6 236.569 1147.67 236.901H1147.73C1147.78 236.643 1147.95 236.108 1148.23 235.297C1148.52 234.482 1149.16 232.707 1150.16 229.973H1151.46L1148.42 238H1147ZM1153.97 238H1152.75V229.973H1153.97V238ZM1152.65 227.797C1152.65 227.519 1152.72 227.316 1152.85 227.189C1152.99 227.058 1153.16 226.992 1153.37 226.992C1153.56 226.992 1153.73 227.058 1153.87 227.189C1154.01 227.321 1154.08 227.524 1154.08 227.797C1154.08 228.071 1154.01 228.276 1153.87 228.413C1153.73 228.544 1153.56 228.61 1153.37 228.61C1153.16 228.61 1152.99 228.544 1152.85 228.413C1152.72 228.276 1152.65 228.071 1152.65 227.797ZM1159.94 238.146C1158.75 238.146 1157.81 237.785 1157.12 237.062C1156.44 236.34 1156.1 235.336 1156.1 234.052C1156.1 232.758 1156.42 231.73 1157.05 230.969C1157.69 230.207 1158.55 229.826 1159.62 229.826C1160.63 229.826 1161.42 230.158 1162.01 230.822C1162.6 231.481 1162.89 232.353 1162.89 233.437V234.206H1157.36C1157.38 235.148 1157.62 235.864 1158.07 236.352C1158.52 236.84 1159.16 237.084 1159.98 237.084C1160.85 237.084 1161.7 236.904 1162.54 236.542V237.626C1162.11 237.812 1161.71 237.944 1161.32 238.022C1160.94 238.105 1160.48 238.146 1159.94 238.146ZM1159.61 230.844C1158.96 230.844 1158.45 231.054 1158.06 231.474C1157.68 231.894 1157.46 232.475 1157.39 233.217H1161.58C1161.58 232.451 1161.41 231.865 1161.07 231.459C1160.73 231.049 1160.24 230.844 1159.61 230.844ZM1171.52 238L1170.05 233.291C1169.96 233.002 1169.79 232.348 1169.53 231.328H1169.47C1169.28 232.182 1169.11 232.841 1168.96 233.305L1167.44 238H1166.04L1163.85 229.973H1165.12C1165.64 231.989 1166.03 233.525 1166.3 234.58C1166.58 235.634 1166.73 236.345 1166.77 236.711H1166.83C1166.88 236.433 1166.97 236.074 1167.09 235.634C1167.21 235.19 1167.31 234.838 1167.4 234.58L1168.87 229.973H1170.19L1171.63 234.58C1171.9 235.419 1172.09 236.125 1172.18 236.696H1172.24C1172.26 236.521 1172.31 236.25 1172.4 235.883C1172.48 235.517 1172.99 233.547 1173.93 229.973H1175.19L1172.97 238H1171.52Z" fill="black"/>
<circle cx="69" cy="123" r="10" fill="#0BA360"/>
<circle cx="314" cy="105" r="10" fill="#0BA360"/>
<circle cx="565" cy="153" r="10" fill="#0BA360"/>
<circle cx="815" cy="180" r="10" fill="#0BA360"/>
<circle cx="1067" cy="166" r="10" fill="#0BA360"/>
<path d="M1253.52 123.933C1254.04 122.957 1253.67 121.746 1252.69 121.228L1236.79 112.787C1235.82 112.269 1234.61 112.64 1234.09 113.616C1233.57 114.591 1233.94 115.802 1234.92 116.32L1249.05 123.823L1241.55 137.955C1241.03 138.93 1241.4 140.141 1242.37 140.659C1243.35 141.177 1244.56 140.806 1245.08 139.831L1253.52 123.933ZM66.4903 122.939C242.758 78.3566 396.649 122.203 578.137 155.677C759.553 189.137 967.944 212.038 1252.34 124.907L1251.17 121.083C967.616 207.955 759.935 185.14 578.862 151.743C397.862 118.359 242.849 74.2075 65.5095 119.061L66.4903 122.939Z" fill="#0BA360"/>
</svg>
