<svg width="1394" height="602" viewBox="0 0 1394 602" fill="none" xmlns="http://www.w3.org/2000/svg">
<path d="M1224 124.355C1235.43 124.355 1244.7 116.535 1244.7 106.888C1244.7 97.2411 1235.43 89.4209 1224 89.4209C1212.57 89.4209 1203.3 97.2411 1203.3 106.888C1203.3 116.535 1212.57 124.355 1224 124.355Z" fill="white" stroke="white" stroke-width="0.5" stroke-miterlimit="10"/>
<path d="M1221.6 124.442C1216.87 129.924 1210.5 132.139 1201.5 132.139C1205.81 129.717 1210.12 124.975 1211.8 121.248L1221.6 124.442Z" fill="white"/>
<path d="M1272 143.616C1283.43 143.616 1292.7 135.807 1292.7 126.174C1292.7 116.541 1283.43 108.732 1272 108.732C1260.57 108.732 1251.3 116.541 1251.3 126.174C1251.3 135.807 1260.57 143.616 1272 143.616Z" fill="white" stroke="white" stroke-width="0.5" stroke-miterlimit="10"/>
<path d="M1274.4 143.755C1279.13 149.238 1285.5 151.452 1294.5 151.452C1290.19 149.031 1285.88 144.288 1284.2 140.561L1274.4 143.755Z" fill="white"/>
<path d="M1213.5 109.389C1215.16 109.389 1216.5 108.257 1216.5 106.861C1216.5 105.465 1215.16 104.333 1213.5 104.333C1211.84 104.333 1210.5 105.465 1210.5 106.861C1210.5 108.257 1211.84 109.389 1213.5 109.389Z" fill="white"/>
<path d="M1224 109.389C1225.66 109.389 1227 108.257 1227 106.861C1227 105.465 1225.66 104.333 1224 104.333C1222.34 104.333 1221 105.465 1221 106.861C1221 108.257 1222.34 109.389 1224 109.389Z" fill="white"/>
<path d="M1234.5 109.389C1236.16 109.389 1237.5 108.257 1237.5 106.861C1237.5 105.465 1236.16 104.333 1234.5 104.333C1232.84 104.333 1231.5 105.465 1231.5 106.861C1231.5 108.257 1232.84 109.389 1234.5 109.389Z" fill="white"/>
<path d="M1211.8 121.248C1210.12 124.976 1205.81 129.717 1201.5 132.139C1210.5 132.139 1216.87 129.924 1221.6 124.442" stroke="white" stroke-width="0.5" stroke-miterlimit="10" stroke-linecap="round" stroke-linejoin="round"/>
<path d="M1227.41 124.323C1237.39 122.95 1245 115.654 1245 106.861C1245 97.0888 1235.6 89.1667 1224 89.1667C1212.4 89.1667 1203 97.0888 1203 106.861C1203 111.075 1204.75 114.944 1207.66 117.983" stroke="white" stroke-width="0.5" stroke-miterlimit="10" stroke-linecap="round"/>
<path d="M1282.5 128.7C1284.16 128.7 1285.5 127.569 1285.5 126.173C1285.5 124.776 1284.16 123.645 1282.5 123.645C1280.84 123.645 1279.5 124.776 1279.5 126.173C1279.5 127.569 1280.84 128.7 1282.5 128.7Z" fill="white"/>
<path d="M1272 128.7C1273.66 128.7 1275 127.569 1275 126.173C1275 124.776 1273.66 123.645 1272 123.645C1270.34 123.645 1269 124.776 1269 126.173C1269 127.569 1270.34 128.7 1272 128.7Z" fill="white"/>
<path d="M1261.5 128.7C1263.16 128.7 1264.5 127.569 1264.5 126.173C1264.5 124.776 1263.16 123.645 1261.5 123.645C1259.84 123.645 1258.5 124.776 1258.5 126.173C1258.5 127.569 1259.84 128.7 1261.5 128.7Z" fill="white"/>
<path d="M1284.2 140.559C1285.88 144.288 1290.19 149.029 1294.5 151.45C1285.5 151.45 1279.13 149.236 1274.4 143.753" stroke="white" stroke-width="0.5" stroke-miterlimit="10" stroke-linecap="round" stroke-linejoin="round"/>
<path d="M1268.59 143.635C1258.61 142.262 1251 134.966 1251 126.173C1251 116.4 1260.4 108.478 1272 108.478C1283.6 108.478 1293 116.4 1293 126.173C1293 130.387 1291.25 134.255 1288.34 137.295" stroke="white" stroke-width="0.5" stroke-miterlimit="10" stroke-linecap="round"/>
<path fill-rule="evenodd" clip-rule="evenodd" d="M1057.67 407.5H1042.33C1042.33 399.765 1035.47 393.5 1027 393.5C1018.53 393.5 1011.67 399.765 1011.67 407.5H996.333C992.117 407.5 988.667 410.65 988.667 414.5V425C988.667 428.885 992.078 432 996.333 432H1019.33V428.5C1019.33 426.575 1021.06 425 1023.17 425H1030.83C1032.94 425 1034.67 426.575 1034.67 428.5V432H1057.67C1061.88 432 1065.33 428.85 1065.33 425V414.5C1065.33 410.65 1061.88 407.5 1057.67 407.5ZM1030.83 439H1023.17C1021.06 439 1019.33 437.425 1019.33 435.5H992.538V449.5C992.538 453.35 995.988 456.5 1000.21 456.5H1053.83C1058.05 456.5 1061.5 453.35 1061.5 449.5V435.5H1034.67C1034.67 437.425 1032.94 439 1030.83 439ZM1027 400.5C1022.78 400.5 1019.33 403.65 1019.33 407.5H1034.67C1034.67 403.65 1031.22 400.5 1027 400.5Z" fill="white"/>
<path fill-rule="evenodd" clip-rule="evenodd" d="M768.911 122.407L801.226 106.307C803.526 105.187 806.286 105.187 808.586 106.307L845.079 124.472C846.306 125.102 847.073 126.257 847.073 127.552V149.987C847.073 151.912 845.348 153.487 843.239 153.487C841.131 153.487 839.406 151.912 839.406 149.987V129.302L808.586 144.667C806.286 145.822 803.526 145.822 801.226 144.667L768.911 128.567C766.266 127.237 766.266 123.737 768.911 122.407ZM778.073 149.952V140.117L801.226 151.667C803.526 152.822 806.286 152.822 808.586 151.667L831.739 140.117V149.952C831.739 152.507 830.206 154.887 827.753 156.112L808.586 165.667C806.286 166.822 803.526 166.822 801.226 165.667L782.059 156.112C779.606 154.887 778.073 152.507 778.073 149.952Z" fill="white"/>
<path d="M155.499 381.001L376.499 215.001" stroke="#0BA360" stroke-width="5"/>
<path d="M1025.5 378.001L1246.5 212.001" stroke="#0BA360" stroke-width="5"/>
<path d="M590.499 379.001L811.499 213.001" stroke="#0BA360" stroke-width="5"/>
<path d="M373.494 214.996L593.494 378.996" stroke="#0BA360" stroke-width="5"/>
<path d="M808.494 212.996L1028.49 376.996" stroke="#0BA360" stroke-width="5"/>
<path fill-rule="evenodd" clip-rule="evenodd" d="M393.333 125C393.333 132.735 386.472 139 378 139C369.528 139 362.667 132.735 362.667 125C362.667 117.265 369.528 111 378 111C386.472 111 393.333 117.265 393.333 125ZM347.333 160C347.333 150.69 367.765 146 378 146C388.235 146 408.667 150.69 408.667 160V163.5C408.667 165.425 406.942 167 404.833 167H351.167C349.058 167 347.333 165.425 347.333 163.5V160Z" fill="white"/>
<path fill-rule="evenodd" clip-rule="evenodd" d="M106.169 200.638C107.776 207.14 109.869 221.755 107.733 224.048H94.2187C94.2174 224.021 94.216 223.995 94.2147 223.969C89.2057 223.36 85.3099 218.695 85.3099 213.03V202.281C85.3099 196.203 89.7957 191.275 95.3291 191.275H96.2611C101.286 191.275 105.447 195.339 106.169 200.638Z" fill="#191847"/>
<path fill-rule="evenodd" clip-rule="evenodd" d="M90.5587 210.978C88.4113 208.209 86.958 204.816 87.2008 201.014C87.9006 190.059 101.783 192.469 104.483 197.998C107.184 203.527 106.863 217.552 103.373 218.54C101.981 218.934 99.0161 217.969 95.9984 215.971L97.8926 230.69H86.7084L90.5587 210.978Z" fill="#D4A181"/>
<path fill-rule="evenodd" clip-rule="evenodd" d="M93.582 209.127C94.0973 215.208 93.8909 222.151 92.3551 223.799H78.8409C78.0879 209.429 85.365 214.994 85.365 201.463C85.8187 200.976 86.2474 200.494 86.6716 200.079L86.6566 199.681C88.9967 194.418 91.9656 191.787 95.5632 191.787C100.96 191.787 102.663 194.545 104.113 196.887C103.029 200.975 98.8201 201.581 95.0806 204.129C94.6398 203.735 94.0777 203.499 93.4655 203.499C92.05 203.499 90.9025 204.76 90.9025 206.315C90.9025 207.87 92.05 209.13 93.4655 209.13C93.5045 209.13 93.5434 209.129 93.582 209.127Z" fill="#191847"/>
<path fill-rule="evenodd" clip-rule="evenodd" d="M68.7241 323.388C79.9033 326.823 89.5485 328.54 97.6594 328.54C105.77 328.54 113.304 325.895 120.261 320.606C109.321 317.081 100.312 315.318 93.2325 315.318C86.1534 315.318 77.984 318.008 68.7241 323.388Z" fill="#1F28CF"/>
<path fill-rule="evenodd" clip-rule="evenodd" d="M107.337 333.491C107.229 333.313 107.138 333.119 107.066 332.909C105.572 328.568 81.6367 281.739 79.2522 273.177H106.2C108.013 279.687 116.173 320.537 117.321 328.688C120.944 341.544 128.405 383.18 129.357 386.065C130.359 389.099 124.722 392.26 123.219 388.53C120.829 382.594 115.134 366.17 112.598 356.142C110.221 346.74 108.285 338.282 107.337 333.491Z" fill="#BA8B72"/>
<path fill-rule="evenodd" clip-rule="evenodd" d="M85.2907 339.208C74.3481 342.246 34.322 347.738 31.5753 348.6C28.7497 349.486 26.2722 343.088 29.7648 341.702C35.322 339.497 50.6347 334.402 59.9188 332.323C67.3864 330.651 74.2007 329.286 78.7756 328.487C78.388 314.371 76.6163 280.494 77.7776 273.177H101.621C100.507 280.194 91.094 331.388 89.3443 336.513C88.7891 338.342 87.1323 339.151 85.2907 339.208Z" fill="#D4A181"/>
<path fill-rule="evenodd" clip-rule="evenodd" d="M29.9954 339.997C28.5384 339.696 27.4709 339.612 26.7928 339.743C25.968 339.902 24.789 340.286 23.2557 340.895C23.4262 341.95 24.9582 351.431 27.8516 369.338C30.1871 369.649 31.3146 368.991 31.234 367.364C31.1534 365.738 31.0991 364.384 31.0713 363.303L34.2801 349.05C34.3419 348.776 34.1901 348.498 33.941 348.429C33.9368 348.428 33.9325 348.427 33.9282 348.426L31.9214 347.937C31.0594 346.584 30.554 345.446 30.405 344.524C30.284 343.775 30.3912 342.688 30.7266 341.263C30.8553 340.716 30.5569 340.156 30.0602 340.013C30.0388 340.006 30.0172 340.001 29.9954 339.997Z" fill="#E4E4E4"/>
<path fill-rule="evenodd" clip-rule="evenodd" d="M121.508 388.047C120.987 389.575 120.726 390.719 120.726 391.478C120.726 392.401 120.866 393.748 121.146 395.519C122.121 395.519 130.882 395.519 147.43 395.519C148.113 393.039 147.718 391.7 146.247 391.502C144.775 391.304 143.553 391.126 142.58 390.966L130.363 384.984C130.128 384.869 129.853 384.985 129.748 385.243C129.746 385.247 129.744 385.252 129.743 385.256L128.957 387.349C127.595 388.047 126.488 388.396 125.636 388.396C124.944 388.396 123.989 388.089 122.769 387.475C122.301 387.239 121.748 387.465 121.534 387.979C121.524 388.001 121.516 388.024 121.508 388.047Z" fill="#E4E4E4"/>
<path fill-rule="evenodd" clip-rule="evenodd" d="M77.854 273.177C88.361 269.875 98.3025 269.875 107.679 273.177C110.941 289.526 118.867 296.015 120.261 321.08C104.416 329.727 84.8441 314.912 68.5338 323.345C63.8737 311.549 70.3978 283.141 77.854 273.177Z" fill="#2B44FF"/>
<path fill-rule="evenodd" clip-rule="evenodd" d="M123.056 252.861L141.456 250.104C145.136 247.856 148.522 246.333 151.614 245.537C152.484 245.509 153.868 245.857 151.806 247.745C149.744 249.632 147.653 251.721 148.02 252.728C148.387 253.736 150.304 253.361 150.622 254.911C150.834 255.944 147.722 256.112 141.287 255.414L126.358 261.916L123.056 252.861ZM65.2574 257.539L75.4617 257.581C64.2724 285.241 58.4381 299.723 57.9588 301.027C56.8805 303.963 59.1624 308.433 60.1382 310.836C56.96 312.398 57.2986 306.613 53.2894 308.662C49.63 310.532 46.8463 313.92 42.6183 311.055C42.0985 310.702 41.5289 309.376 42.9052 308.339C46.334 305.757 51.275 301.237 51.9426 299.749C52.8531 297.72 57.2913 283.65 65.2574 257.539Z" fill="#D4A181"/>
<path fill-rule="evenodd" clip-rule="evenodd" d="M93.2081 221.989L101.198 222.573C103.165 242.128 113.883 254.48 137.88 250.298L141.068 275.48C118.64 278.665 98.9696 268.801 94.9383 242.095C93.8948 235.182 93.0708 227.987 93.2081 221.989Z" fill="#AFB9C5"/>
<path fill-rule="evenodd" clip-rule="evenodd" d="M89.2667 219.437L101.372 222.483C101.372 245.354 108.005 259.946 111.406 276.761H78.7129C78.2524 282.571 77.9696 288.543 77.8222 294.677H53.3425C58.8898 262.256 70.5981 237.173 88.4675 219.429H89.2603L89.2667 219.437Z" fill="#C5CFD6"/>
<path fill-rule="evenodd" clip-rule="evenodd" d="M83.871 244.133C83.0285 258.384 83.524 269.26 85.3576 276.761H78.7129C79.6252 265.25 81.235 254.374 83.871 244.133Z" fill="black" fill-opacity="0.1"/>
<path fill-rule="evenodd" clip-rule="evenodd" d="M553.911 409.407L586.226 393.307C588.526 392.187 591.286 392.187 593.586 393.307L630.079 411.472C631.306 412.102 632.073 413.257 632.073 414.552V436.987C632.073 438.912 630.348 440.487 628.239 440.487C626.131 440.487 624.406 438.912 624.406 436.987V416.302L593.586 431.667C591.286 432.822 588.526 432.822 586.226 431.667L553.911 415.567C551.266 414.237 551.266 410.737 553.911 409.407ZM563.073 436.952V427.117L586.226 438.667C588.526 439.822 591.286 439.822 593.586 438.667L616.739 427.117V436.952C616.739 439.507 615.206 441.887 612.753 443.112L593.586 452.667C591.286 453.822 588.526 453.822 586.226 452.667L567.059 443.112C564.606 441.887 563.073 439.507 563.073 436.952Z" fill="white"/>
<path d="M296.965 187.002C295.396 187.002 294.156 187.526 293.244 188.574C292.339 189.616 291.887 191.045 291.887 192.861C291.887 194.73 292.323 196.175 293.195 197.197C294.074 198.213 295.324 198.721 296.945 198.721C297.941 198.721 299.077 198.542 300.354 198.184V199.639C299.364 200.01 298.143 200.195 296.691 200.195C294.589 200.195 292.964 199.557 291.818 198.281C290.679 197.005 290.109 195.192 290.109 192.842C290.109 191.37 290.383 190.081 290.93 188.975C291.483 187.868 292.277 187.015 293.312 186.416C294.354 185.817 295.578 185.518 296.984 185.518C298.482 185.518 299.79 185.791 300.91 186.338L300.207 187.764C299.126 187.256 298.046 187.002 296.965 187.002ZM308.107 189.102C308.583 189.102 309.009 189.141 309.387 189.219L309.162 190.723C308.719 190.625 308.329 190.576 307.99 190.576C307.124 190.576 306.382 190.928 305.764 191.631C305.152 192.334 304.846 193.21 304.846 194.258V200H303.225V189.297H304.562L304.748 191.279H304.826C305.223 190.583 305.702 190.046 306.262 189.668C306.822 189.29 307.437 189.102 308.107 189.102ZM315.91 200.195C314.328 200.195 313.078 199.714 312.16 198.75C311.249 197.786 310.793 196.449 310.793 194.736C310.793 193.011 311.216 191.641 312.062 190.625C312.915 189.609 314.058 189.102 315.49 189.102C316.831 189.102 317.893 189.544 318.674 190.43C319.455 191.309 319.846 192.471 319.846 193.916V194.941H312.473C312.505 196.198 312.821 197.152 313.42 197.803C314.025 198.454 314.875 198.779 315.969 198.779C317.121 198.779 318.26 198.538 319.387 198.057V199.502C318.814 199.749 318.27 199.925 317.756 200.029C317.248 200.14 316.633 200.195 315.91 200.195ZM315.471 190.459C314.611 190.459 313.924 190.739 313.41 191.299C312.902 191.859 312.603 192.633 312.512 193.623H318.107C318.107 192.601 317.88 191.82 317.424 191.279C316.968 190.732 316.317 190.459 315.471 190.459ZM329.201 200L328.879 198.477H328.801C328.267 199.147 327.733 199.603 327.199 199.844C326.672 200.078 326.011 200.195 325.217 200.195C324.156 200.195 323.322 199.922 322.717 199.375C322.118 198.828 321.818 198.05 321.818 197.041C321.818 194.88 323.547 193.747 327.004 193.643L328.82 193.584V192.92C328.82 192.08 328.638 191.462 328.273 191.064C327.915 190.661 327.339 190.459 326.545 190.459C325.653 190.459 324.644 190.732 323.518 191.279L323.02 190.039C323.547 189.753 324.123 189.528 324.748 189.365C325.38 189.202 326.011 189.121 326.643 189.121C327.919 189.121 328.863 189.404 329.475 189.971C330.093 190.537 330.402 191.445 330.402 192.695V200H329.201ZM325.539 198.857C326.548 198.857 327.339 198.581 327.912 198.027C328.492 197.474 328.781 196.699 328.781 195.703V194.736L327.16 194.805C325.871 194.85 324.94 195.052 324.367 195.41C323.801 195.762 323.518 196.312 323.518 197.061C323.518 197.646 323.693 198.092 324.045 198.398C324.403 198.704 324.901 198.857 325.539 198.857ZM337.209 198.857C337.495 198.857 337.772 198.838 338.039 198.799C338.306 198.753 338.518 198.708 338.674 198.662V199.902C338.498 199.987 338.238 200.055 337.893 200.107C337.554 200.166 337.248 200.195 336.975 200.195C334.904 200.195 333.869 199.105 333.869 196.924V190.557H332.336V189.775L333.869 189.102L334.553 186.816H335.49V189.297H338.596V190.557H335.49V196.855C335.49 197.5 335.643 197.995 335.949 198.34C336.255 198.685 336.675 198.857 337.209 198.857ZM345.344 200.195C343.762 200.195 342.512 199.714 341.594 198.75C340.682 197.786 340.227 196.449 340.227 194.736C340.227 193.011 340.65 191.641 341.496 190.625C342.349 189.609 343.492 189.102 344.924 189.102C346.265 189.102 347.326 189.544 348.107 190.43C348.889 191.309 349.279 192.471 349.279 193.916V194.941H341.906C341.939 196.198 342.255 197.152 342.854 197.803C343.459 198.454 344.309 198.779 345.402 198.779C346.555 198.779 347.694 198.538 348.82 198.057V199.502C348.247 199.749 347.704 199.925 347.189 200.029C346.682 200.14 346.066 200.195 345.344 200.195ZM344.904 190.459C344.045 190.459 343.358 190.739 342.844 191.299C342.336 191.859 342.036 192.633 341.945 193.623H347.541C347.541 192.601 347.313 191.82 346.857 191.279C346.402 190.732 345.751 190.459 344.904 190.459ZM363.83 200L363.508 198.477H363.43C362.896 199.147 362.362 199.603 361.828 199.844C361.301 200.078 360.64 200.195 359.846 200.195C358.785 200.195 357.951 199.922 357.346 199.375C356.747 198.828 356.447 198.05 356.447 197.041C356.447 194.88 358.176 193.747 361.633 193.643L363.449 193.584V192.92C363.449 192.08 363.267 191.462 362.902 191.064C362.544 190.661 361.968 190.459 361.174 190.459C360.282 190.459 359.273 190.732 358.146 191.279L357.648 190.039C358.176 189.753 358.752 189.528 359.377 189.365C360.008 189.202 360.64 189.121 361.271 189.121C362.548 189.121 363.492 189.404 364.104 189.971C364.722 190.537 365.031 191.445 365.031 192.695V200H363.83ZM360.168 198.857C361.177 198.857 361.968 198.581 362.541 198.027C363.12 197.474 363.41 196.699 363.41 195.703V194.736L361.789 194.805C360.5 194.85 359.569 195.052 358.996 195.41C358.43 195.762 358.146 196.312 358.146 197.061C358.146 197.646 358.322 198.092 358.674 198.398C359.032 198.704 359.53 198.857 360.168 198.857ZM372.277 204.805C371.659 204.805 371.158 204.723 370.773 204.561V203.242C371.223 203.372 371.665 203.438 372.102 203.438C372.609 203.438 372.98 203.298 373.215 203.018C373.456 202.744 373.576 202.324 373.576 201.758V189.297H375.197V201.641C375.197 203.75 374.224 204.805 372.277 204.805ZM373.439 186.396C373.439 186.025 373.531 185.755 373.713 185.586C373.895 185.41 374.123 185.322 374.396 185.322C374.657 185.322 374.882 185.41 375.07 185.586C375.259 185.762 375.354 186.032 375.354 186.396C375.354 186.761 375.259 187.035 375.07 187.217C374.882 187.393 374.657 187.48 374.396 187.48C374.123 187.48 373.895 187.393 373.713 187.217C373.531 187.035 373.439 186.761 373.439 186.396ZM387.873 194.639C387.873 196.383 387.434 197.747 386.555 198.73C385.676 199.707 384.462 200.195 382.912 200.195C381.955 200.195 381.105 199.971 380.363 199.521C379.621 199.072 379.048 198.428 378.645 197.588C378.241 196.748 378.039 195.765 378.039 194.639C378.039 192.894 378.475 191.536 379.348 190.566C380.22 189.59 381.431 189.102 382.98 189.102C384.478 189.102 385.666 189.6 386.545 190.596C387.43 191.592 387.873 192.939 387.873 194.639ZM379.719 194.639C379.719 196.006 379.992 197.048 380.539 197.764C381.086 198.48 381.89 198.838 382.951 198.838C384.012 198.838 384.816 198.483 385.363 197.773C385.917 197.057 386.193 196.012 386.193 194.639C386.193 193.278 385.917 192.246 385.363 191.543C384.816 190.833 384.006 190.479 382.932 190.479C381.87 190.479 381.07 190.827 380.529 191.523C379.989 192.22 379.719 193.258 379.719 194.639ZM395.705 189.121C397.111 189.121 398.202 189.603 398.977 190.566C399.758 191.523 400.148 192.881 400.148 194.639C400.148 196.396 399.755 197.764 398.967 198.74C398.186 199.71 397.098 200.195 395.705 200.195C395.008 200.195 394.37 200.068 393.791 199.814C393.218 199.554 392.736 199.157 392.346 198.623H392.229L391.887 200H390.725V184.805H392.346V188.496C392.346 189.323 392.32 190.065 392.268 190.723H392.346C393.101 189.655 394.221 189.121 395.705 189.121ZM395.471 190.479C394.364 190.479 393.566 190.798 393.078 191.436C392.59 192.067 392.346 193.135 392.346 194.639C392.346 196.143 392.596 197.22 393.098 197.871C393.599 198.516 394.403 198.838 395.51 198.838C396.506 198.838 397.248 198.477 397.736 197.754C398.225 197.025 398.469 195.98 398.469 194.619C398.469 193.226 398.225 192.188 397.736 191.504C397.248 190.82 396.493 190.479 395.471 190.479ZM413.166 200.195C412.469 200.195 411.831 200.068 411.252 199.814C410.679 199.554 410.197 199.157 409.807 198.623H409.689C409.768 199.248 409.807 199.84 409.807 200.4V204.805H408.186V189.297H409.504L409.729 190.762H409.807C410.223 190.176 410.708 189.753 411.262 189.492C411.815 189.232 412.45 189.102 413.166 189.102C414.585 189.102 415.679 189.587 416.447 190.557C417.222 191.527 417.609 192.887 417.609 194.639C417.609 196.396 417.215 197.764 416.428 198.74C415.646 199.71 414.559 200.195 413.166 200.195ZM412.932 190.479C411.838 190.479 411.047 190.781 410.559 191.387C410.07 191.992 409.82 192.956 409.807 194.277V194.639C409.807 196.143 410.057 197.22 410.559 197.871C411.06 198.516 411.864 198.838 412.971 198.838C413.895 198.838 414.618 198.464 415.139 197.715C415.666 196.966 415.93 195.934 415.93 194.619C415.93 193.285 415.666 192.262 415.139 191.553C414.618 190.837 413.882 190.479 412.932 190.479ZM425.334 189.102C425.809 189.102 426.236 189.141 426.613 189.219L426.389 190.723C425.946 190.625 425.555 190.576 425.217 190.576C424.351 190.576 423.609 190.928 422.99 191.631C422.378 192.334 422.072 193.21 422.072 194.258V200H420.451V189.297H421.789L421.975 191.279H422.053C422.45 190.583 422.928 190.046 423.488 189.668C424.048 189.29 424.663 189.102 425.334 189.102ZM437.854 194.639C437.854 196.383 437.414 197.747 436.535 198.73C435.656 199.707 434.442 200.195 432.893 200.195C431.936 200.195 431.086 199.971 430.344 199.521C429.602 199.072 429.029 198.428 428.625 197.588C428.221 196.748 428.02 195.765 428.02 194.639C428.02 192.894 428.456 191.536 429.328 190.566C430.201 189.59 431.411 189.102 432.961 189.102C434.458 189.102 435.646 189.6 436.525 190.596C437.411 191.592 437.854 192.939 437.854 194.639ZM429.699 194.639C429.699 196.006 429.973 197.048 430.52 197.764C431.066 198.48 431.87 198.838 432.932 198.838C433.993 198.838 434.797 198.483 435.344 197.773C435.897 197.057 436.174 196.012 436.174 194.639C436.174 193.278 435.897 192.246 435.344 191.543C434.797 190.833 433.986 190.479 432.912 190.479C431.851 190.479 431.05 190.827 430.51 191.523C429.969 192.22 429.699 193.258 429.699 194.639ZM445.529 190.557H442.805V200H441.184V190.557H439.27V189.824L441.184 189.238V188.643C441.184 186.012 442.333 184.697 444.631 184.697C445.197 184.697 445.861 184.811 446.623 185.039L446.203 186.338C445.578 186.136 445.044 186.035 444.602 186.035C443.99 186.035 443.537 186.24 443.244 186.65C442.951 187.054 442.805 187.705 442.805 188.604V189.297H445.529V190.557ZM449.104 200H447.482V189.297H449.104V200ZM447.346 186.396C447.346 186.025 447.437 185.755 447.619 185.586C447.801 185.41 448.029 185.322 448.303 185.322C448.563 185.322 448.788 185.41 448.977 185.586C449.165 185.762 449.26 186.032 449.26 186.396C449.26 186.761 449.165 187.035 448.977 187.217C448.788 187.393 448.563 187.48 448.303 187.48C448.029 187.48 447.801 187.393 447.619 187.217C447.437 187.035 447.346 186.761 447.346 186.396ZM454.162 200H452.541V184.805H454.162V200ZM462.121 200.195C460.539 200.195 459.289 199.714 458.371 198.75C457.46 197.786 457.004 196.449 457.004 194.736C457.004 193.011 457.427 191.641 458.273 190.625C459.126 189.609 460.269 189.102 461.701 189.102C463.042 189.102 464.104 189.544 464.885 190.43C465.666 191.309 466.057 192.471 466.057 193.916V194.941H458.684C458.716 196.198 459.032 197.152 459.631 197.803C460.236 198.454 461.086 198.779 462.18 198.779C463.332 198.779 464.471 198.538 465.598 198.057V199.502C465.025 199.749 464.481 199.925 463.967 200.029C463.459 200.14 462.844 200.195 462.121 200.195ZM461.682 190.459C460.822 190.459 460.135 190.739 459.621 191.299C459.113 191.859 458.814 192.633 458.723 193.623H464.318C464.318 192.601 464.09 191.82 463.635 191.279C463.179 190.732 462.528 190.459 461.682 190.459Z" fill="black"/>
<path d="M507.656 488V473.723H509.316V488H507.656ZM520.322 488V481.076C520.322 480.204 520.124 479.553 519.727 479.123C519.329 478.693 518.708 478.479 517.861 478.479C516.742 478.479 515.921 478.781 515.4 479.387C514.88 479.992 514.619 480.992 514.619 482.385V488H512.998V477.297H514.316L514.58 478.762H514.658C514.99 478.234 515.456 477.827 516.055 477.541C516.654 477.248 517.321 477.102 518.057 477.102C519.346 477.102 520.316 477.414 520.967 478.039C521.618 478.658 521.943 479.65 521.943 481.018V488H520.322ZM532.568 486.564H532.48C531.732 487.652 530.612 488.195 529.121 488.195C527.721 488.195 526.631 487.717 525.85 486.76C525.075 485.803 524.688 484.442 524.688 482.678C524.688 480.913 525.078 479.543 525.859 478.566C526.641 477.59 527.728 477.102 529.121 477.102C530.573 477.102 531.686 477.629 532.461 478.684H532.588L532.52 477.912L532.48 477.16V472.805H534.102V488H532.783L532.568 486.564ZM529.326 486.838C530.433 486.838 531.234 486.538 531.729 485.939C532.23 485.334 532.48 484.361 532.48 483.02V482.678C532.48 481.161 532.227 480.08 531.719 479.436C531.217 478.785 530.413 478.459 529.307 478.459C528.356 478.459 527.627 478.83 527.119 479.572C526.618 480.308 526.367 481.35 526.367 482.697C526.367 484.064 526.618 485.096 527.119 485.793C527.62 486.49 528.356 486.838 529.326 486.838ZM539.17 488H537.549V477.297H539.17V488ZM537.412 474.396C537.412 474.025 537.503 473.755 537.686 473.586C537.868 473.41 538.096 473.322 538.369 473.322C538.63 473.322 538.854 473.41 539.043 473.586C539.232 473.762 539.326 474.032 539.326 474.396C539.326 474.761 539.232 475.035 539.043 475.217C538.854 475.393 538.63 475.48 538.369 475.48C538.096 475.48 537.868 475.393 537.686 475.217C537.503 475.035 537.412 474.761 537.412 474.396ZM544.951 488L540.889 477.297H542.627L544.932 483.645C545.452 485.129 545.758 486.092 545.85 486.535H545.928C545.999 486.19 546.224 485.477 546.602 484.396C546.986 483.309 547.842 480.943 549.17 477.297H550.908L546.846 488H544.951ZM554.248 488H552.627V477.297H554.248V488ZM552.49 474.396C552.49 474.025 552.581 473.755 552.764 473.586C552.946 473.41 553.174 473.322 553.447 473.322C553.708 473.322 553.932 473.41 554.121 473.586C554.31 473.762 554.404 474.032 554.404 474.396C554.404 474.761 554.31 475.035 554.121 475.217C553.932 475.393 553.708 475.48 553.447 475.48C553.174 475.48 552.946 475.393 552.764 475.217C552.581 475.035 552.49 474.761 552.49 474.396ZM564.971 486.564H564.883C564.134 487.652 563.014 488.195 561.523 488.195C560.124 488.195 559.033 487.717 558.252 486.76C557.477 485.803 557.09 484.442 557.09 482.678C557.09 480.913 557.48 479.543 558.262 478.566C559.043 477.59 560.13 477.102 561.523 477.102C562.975 477.102 564.089 477.629 564.863 478.684H564.99L564.922 477.912L564.883 477.16V472.805H566.504V488H565.186L564.971 486.564ZM561.729 486.838C562.835 486.838 563.636 486.538 564.131 485.939C564.632 485.334 564.883 484.361 564.883 483.02V482.678C564.883 481.161 564.629 480.08 564.121 479.436C563.62 478.785 562.816 478.459 561.709 478.459C560.758 478.459 560.029 478.83 559.521 479.572C559.02 480.308 558.77 481.35 558.77 482.697C558.77 484.064 559.02 485.096 559.521 485.793C560.023 486.49 560.758 486.838 561.729 486.838ZM571.475 477.297V484.24C571.475 485.113 571.673 485.764 572.07 486.193C572.467 486.623 573.089 486.838 573.936 486.838C575.055 486.838 575.872 486.532 576.387 485.92C576.908 485.308 577.168 484.309 577.168 482.922V477.297H578.789V488H577.451L577.217 486.564H577.129C576.797 487.092 576.335 487.495 575.742 487.775C575.156 488.055 574.486 488.195 573.73 488.195C572.428 488.195 571.452 487.886 570.801 487.268C570.156 486.649 569.834 485.66 569.834 484.299V477.297H571.475ZM588.818 488L588.496 486.477H588.418C587.884 487.147 587.35 487.603 586.816 487.844C586.289 488.078 585.628 488.195 584.834 488.195C583.773 488.195 582.939 487.922 582.334 487.375C581.735 486.828 581.436 486.05 581.436 485.041C581.436 482.88 583.164 481.747 586.621 481.643L588.438 481.584V480.92C588.438 480.08 588.255 479.462 587.891 479.064C587.533 478.661 586.956 478.459 586.162 478.459C585.27 478.459 584.261 478.732 583.135 479.279L582.637 478.039C583.164 477.753 583.74 477.528 584.365 477.365C584.997 477.202 585.628 477.121 586.26 477.121C587.536 477.121 588.48 477.404 589.092 477.971C589.71 478.537 590.02 479.445 590.02 480.695V488H588.818ZM585.156 486.857C586.165 486.857 586.956 486.581 587.529 486.027C588.109 485.474 588.398 484.699 588.398 483.703V482.736L586.777 482.805C585.488 482.85 584.557 483.052 583.984 483.41C583.418 483.762 583.135 484.312 583.135 485.061C583.135 485.646 583.311 486.092 583.662 486.398C584.02 486.704 584.518 486.857 585.156 486.857ZM594.99 488H593.369V472.805H594.99V488ZM607.9 488.195C606.351 488.195 605.15 487.72 604.297 486.77C603.451 485.812 603.027 484.462 603.027 482.717C603.027 480.926 603.457 479.543 604.316 478.566C605.182 477.59 606.413 477.102 608.008 477.102C608.522 477.102 609.036 477.157 609.551 477.268C610.065 477.378 610.469 477.508 610.762 477.658L610.264 479.035C609.906 478.892 609.515 478.775 609.092 478.684C608.669 478.586 608.294 478.537 607.969 478.537C605.794 478.537 604.707 479.924 604.707 482.697C604.707 484.012 604.971 485.021 605.498 485.725C606.032 486.428 606.82 486.779 607.861 486.779C608.753 486.779 609.668 486.587 610.605 486.203V487.639C609.889 488.01 608.988 488.195 607.9 488.195ZM622.393 482.639C622.393 484.383 621.953 485.747 621.074 486.73C620.195 487.707 618.981 488.195 617.432 488.195C616.475 488.195 615.625 487.971 614.883 487.521C614.141 487.072 613.568 486.428 613.164 485.588C612.76 484.748 612.559 483.765 612.559 482.639C612.559 480.894 612.995 479.536 613.867 478.566C614.74 477.59 615.951 477.102 617.5 477.102C618.997 477.102 620.186 477.6 621.064 478.596C621.95 479.592 622.393 480.939 622.393 482.639ZM614.238 482.639C614.238 484.006 614.512 485.048 615.059 485.764C615.605 486.48 616.41 486.838 617.471 486.838C618.532 486.838 619.336 486.483 619.883 485.773C620.436 485.057 620.713 484.012 620.713 482.639C620.713 481.278 620.436 480.246 619.883 479.543C619.336 478.833 618.525 478.479 617.451 478.479C616.39 478.479 615.589 478.827 615.049 479.523C614.508 480.22 614.238 481.258 614.238 482.639ZM626.768 477.297V484.24C626.768 485.113 626.966 485.764 627.363 486.193C627.76 486.623 628.382 486.838 629.229 486.838C630.348 486.838 631.165 486.532 631.68 485.92C632.201 485.308 632.461 484.309 632.461 482.922V477.297H634.082V488H632.744L632.51 486.564H632.422C632.09 487.092 631.628 487.495 631.035 487.775C630.449 488.055 629.779 488.195 629.023 488.195C627.721 488.195 626.745 487.886 626.094 487.268C625.449 486.649 625.127 485.66 625.127 484.299V477.297H626.768ZM642.412 477.102C642.887 477.102 643.314 477.141 643.691 477.219L643.467 478.723C643.024 478.625 642.633 478.576 642.295 478.576C641.429 478.576 640.687 478.928 640.068 479.631C639.456 480.334 639.15 481.21 639.15 482.258V488H637.529V477.297H638.867L639.053 479.279H639.131C639.528 478.583 640.007 478.046 640.566 477.668C641.126 477.29 641.742 477.102 642.412 477.102ZM652.598 485.08C652.598 486.076 652.227 486.844 651.484 487.385C650.742 487.925 649.701 488.195 648.359 488.195C646.94 488.195 645.833 487.971 645.039 487.521V486.018C645.553 486.278 646.104 486.483 646.689 486.633C647.282 486.783 647.852 486.857 648.398 486.857C649.245 486.857 649.896 486.724 650.352 486.457C650.807 486.184 651.035 485.77 651.035 485.217C651.035 484.8 650.853 484.445 650.488 484.152C650.13 483.853 649.427 483.501 648.379 483.098C647.383 482.727 646.673 482.404 646.25 482.131C645.833 481.851 645.521 481.535 645.312 481.184C645.111 480.832 645.01 480.412 645.01 479.924C645.01 479.051 645.365 478.365 646.074 477.863C646.784 477.355 647.757 477.102 648.994 477.102C650.146 477.102 651.273 477.336 652.373 477.805L651.797 479.123C650.723 478.68 649.749 478.459 648.877 478.459C648.109 478.459 647.529 478.579 647.139 478.82C646.748 479.061 646.553 479.393 646.553 479.816C646.553 480.103 646.624 480.347 646.768 480.549C646.917 480.751 647.155 480.943 647.48 481.125C647.806 481.307 648.431 481.571 649.355 481.916C650.625 482.378 651.481 482.844 651.924 483.312C652.373 483.781 652.598 484.37 652.598 485.08ZM659.766 488.195C658.184 488.195 656.934 487.714 656.016 486.75C655.104 485.786 654.648 484.449 654.648 482.736C654.648 481.011 655.072 479.641 655.918 478.625C656.771 477.609 657.913 477.102 659.346 477.102C660.687 477.102 661.748 477.544 662.529 478.43C663.311 479.309 663.701 480.471 663.701 481.916V482.941H656.328C656.361 484.198 656.676 485.152 657.275 485.803C657.881 486.454 658.73 486.779 659.824 486.779C660.977 486.779 662.116 486.538 663.242 486.057V487.502C662.669 487.749 662.126 487.925 661.611 488.029C661.104 488.14 660.488 488.195 659.766 488.195ZM659.326 478.459C658.467 478.459 657.78 478.739 657.266 479.299C656.758 479.859 656.458 480.633 656.367 481.623H661.963C661.963 480.601 661.735 479.82 661.279 479.279C660.824 478.732 660.173 478.459 659.326 478.459ZM673.379 485.08C673.379 486.076 673.008 486.844 672.266 487.385C671.523 487.925 670.482 488.195 669.141 488.195C667.721 488.195 666.615 487.971 665.82 487.521V486.018C666.335 486.278 666.885 486.483 667.471 486.633C668.063 486.783 668.633 486.857 669.18 486.857C670.026 486.857 670.677 486.724 671.133 486.457C671.589 486.184 671.816 485.77 671.816 485.217C671.816 484.8 671.634 484.445 671.27 484.152C670.911 483.853 670.208 483.501 669.16 483.098C668.164 482.727 667.454 482.404 667.031 482.131C666.615 481.851 666.302 481.535 666.094 481.184C665.892 480.832 665.791 480.412 665.791 479.924C665.791 479.051 666.146 478.365 666.855 477.863C667.565 477.355 668.538 477.102 669.775 477.102C670.928 477.102 672.054 477.336 673.154 477.805L672.578 479.123C671.504 478.68 670.531 478.459 669.658 478.459C668.89 478.459 668.311 478.579 667.92 478.82C667.529 479.061 667.334 479.393 667.334 479.816C667.334 480.103 667.406 480.347 667.549 480.549C667.699 480.751 667.936 480.943 668.262 481.125C668.587 481.307 669.212 481.571 670.137 481.916C671.406 482.378 672.262 482.844 672.705 483.312C673.154 483.781 673.379 484.37 673.379 485.08Z" fill="black"/>
<path d="M961.424 480.52H966.277V487.463C965.522 487.704 964.754 487.886 963.973 488.01C963.191 488.133 962.286 488.195 961.258 488.195C959.096 488.195 957.413 487.554 956.209 486.271C955.005 484.982 954.402 483.179 954.402 480.861C954.402 479.377 954.699 478.078 955.291 476.965C955.89 475.845 956.749 474.992 957.869 474.406C958.989 473.814 960.301 473.518 961.805 473.518C963.328 473.518 964.747 473.798 966.062 474.357L965.418 475.822C964.129 475.275 962.889 475.002 961.697 475.002C959.959 475.002 958.602 475.52 957.625 476.555C956.648 477.59 956.16 479.025 956.16 480.861C956.16 482.788 956.629 484.25 957.566 485.246C958.51 486.242 959.894 486.74 961.717 486.74C962.706 486.74 963.673 486.626 964.617 486.398V482.004H961.424V480.52ZM973.992 488.195C972.41 488.195 971.16 487.714 970.242 486.75C969.331 485.786 968.875 484.449 968.875 482.736C968.875 481.011 969.298 479.641 970.145 478.625C970.997 477.609 972.14 477.102 973.572 477.102C974.913 477.102 975.975 477.544 976.756 478.43C977.537 479.309 977.928 480.471 977.928 481.916V482.941H970.555C970.587 484.198 970.903 485.152 971.502 485.803C972.107 486.454 972.957 486.779 974.051 486.779C975.203 486.779 976.342 486.538 977.469 486.057V487.502C976.896 487.749 976.352 487.925 975.838 488.029C975.33 488.14 974.715 488.195 973.992 488.195ZM973.553 478.459C972.693 478.459 972.007 478.739 971.492 479.299C970.984 479.859 970.685 480.633 970.594 481.623H976.189C976.189 480.601 975.962 479.82 975.506 479.279C975.05 478.732 974.399 478.459 973.553 478.459ZM984.158 486.857C984.445 486.857 984.721 486.838 984.988 486.799C985.255 486.753 985.467 486.708 985.623 486.662V487.902C985.447 487.987 985.187 488.055 984.842 488.107C984.503 488.166 984.197 488.195 983.924 488.195C981.854 488.195 980.818 487.105 980.818 484.924V478.557H979.285V477.775L980.818 477.102L981.502 474.816H982.439V477.297H985.545V478.557H982.439V484.855C982.439 485.5 982.592 485.995 982.898 486.34C983.204 486.685 983.624 486.857 984.158 486.857ZM999.549 488L999.227 486.477H999.148C998.615 487.147 998.081 487.603 997.547 487.844C997.02 488.078 996.359 488.195 995.564 488.195C994.503 488.195 993.67 487.922 993.064 487.375C992.465 486.828 992.166 486.05 992.166 485.041C992.166 482.88 993.895 481.747 997.352 481.643L999.168 481.584V480.92C999.168 480.08 998.986 479.462 998.621 479.064C998.263 478.661 997.687 478.459 996.893 478.459C996.001 478.459 994.992 478.732 993.865 479.279L993.367 478.039C993.895 477.753 994.471 477.528 995.096 477.365C995.727 477.202 996.359 477.121 996.99 477.121C998.266 477.121 999.21 477.404 999.822 477.971C1000.44 478.537 1000.75 479.445 1000.75 480.695V488H999.549ZM995.887 486.857C996.896 486.857 997.687 486.581 998.26 486.027C998.839 485.474 999.129 484.699 999.129 483.703V482.736L997.508 482.805C996.219 482.85 995.288 483.052 994.715 483.41C994.148 483.762 993.865 484.312 993.865 485.061C993.865 485.646 994.041 486.092 994.393 486.398C994.751 486.704 995.249 486.857 995.887 486.857ZM1008 492.805C1007.38 492.805 1006.88 492.723 1006.49 492.561V491.242C1006.94 491.372 1007.38 491.438 1007.82 491.438C1008.33 491.438 1008.7 491.298 1008.93 491.018C1009.17 490.744 1009.29 490.324 1009.29 489.758V477.297H1010.92V489.641C1010.92 491.75 1009.94 492.805 1008 492.805ZM1009.16 474.396C1009.16 474.025 1009.25 473.755 1009.43 473.586C1009.61 473.41 1009.84 473.322 1010.12 473.322C1010.38 473.322 1010.6 473.41 1010.79 473.586C1010.98 473.762 1011.07 474.032 1011.07 474.396C1011.07 474.761 1010.98 475.035 1010.79 475.217C1010.6 475.393 1010.38 475.48 1010.12 475.48C1009.84 475.48 1009.61 475.393 1009.43 475.217C1009.25 475.035 1009.16 474.761 1009.16 474.396ZM1023.59 482.639C1023.59 484.383 1023.15 485.747 1022.27 486.73C1021.39 487.707 1020.18 488.195 1018.63 488.195C1017.67 488.195 1016.82 487.971 1016.08 487.521C1015.34 487.072 1014.77 486.428 1014.36 485.588C1013.96 484.748 1013.76 483.765 1013.76 482.639C1013.76 480.894 1014.19 479.536 1015.07 478.566C1015.94 477.59 1017.15 477.102 1018.7 477.102C1020.2 477.102 1021.38 477.6 1022.26 478.596C1023.15 479.592 1023.59 480.939 1023.59 482.639ZM1015.44 482.639C1015.44 484.006 1015.71 485.048 1016.26 485.764C1016.8 486.48 1017.61 486.838 1018.67 486.838C1019.73 486.838 1020.54 486.483 1021.08 485.773C1021.64 485.057 1021.91 484.012 1021.91 482.639C1021.91 481.278 1021.64 480.246 1021.08 479.543C1020.54 478.833 1019.72 478.479 1018.65 478.479C1017.59 478.479 1016.79 478.827 1016.25 479.523C1015.71 480.22 1015.44 481.258 1015.44 482.639ZM1031.42 477.121C1032.83 477.121 1033.92 477.603 1034.7 478.566C1035.48 479.523 1035.87 480.881 1035.87 482.639C1035.87 484.396 1035.47 485.764 1034.69 486.74C1033.9 487.71 1032.82 488.195 1031.42 488.195C1030.73 488.195 1030.09 488.068 1029.51 487.814C1028.94 487.554 1028.46 487.157 1028.06 486.623H1027.95L1027.61 488H1026.44V472.805H1028.06V476.496C1028.06 477.323 1028.04 478.065 1027.99 478.723H1028.06C1028.82 477.655 1029.94 477.121 1031.42 477.121ZM1031.19 478.479C1030.08 478.479 1029.29 478.798 1028.8 479.436C1028.31 480.067 1028.06 481.135 1028.06 482.639C1028.06 484.143 1028.32 485.22 1028.82 485.871C1029.32 486.516 1030.12 486.838 1031.23 486.838C1032.22 486.838 1032.97 486.477 1033.46 485.754C1033.94 485.025 1034.19 483.98 1034.19 482.619C1034.19 481.226 1033.94 480.188 1033.46 479.504C1032.97 478.82 1032.21 478.479 1031.19 478.479ZM1057.55 488V481.037C1057.55 480.184 1057.36 479.546 1057 479.123C1056.64 478.693 1056.07 478.479 1055.3 478.479C1054.29 478.479 1053.55 478.768 1053.06 479.348C1052.58 479.927 1052.34 480.819 1052.34 482.023V488H1050.72V481.037C1050.72 480.184 1050.54 479.546 1050.17 479.123C1049.81 478.693 1049.24 478.479 1048.46 478.479C1047.45 478.479 1046.7 478.785 1046.23 479.396C1045.76 480.002 1045.53 480.998 1045.53 482.385V488H1043.9V477.297H1045.22L1045.49 478.762H1045.56C1045.87 478.241 1046.3 477.834 1046.85 477.541C1047.41 477.248 1048.04 477.102 1048.73 477.102C1050.4 477.102 1051.5 477.707 1052.01 478.918H1052.09C1052.41 478.358 1052.87 477.915 1053.47 477.59C1054.08 477.264 1054.77 477.102 1055.54 477.102C1056.76 477.102 1057.66 477.414 1058.26 478.039C1058.87 478.658 1059.17 479.65 1059.17 481.018V488H1057.55ZM1069.1 488L1068.78 486.477H1068.7C1068.17 487.147 1067.63 487.603 1067.1 487.844C1066.57 488.078 1065.91 488.195 1065.12 488.195C1064.05 488.195 1063.22 487.922 1062.62 487.375C1062.02 486.828 1061.72 486.05 1061.72 485.041C1061.72 482.88 1063.45 481.747 1066.9 481.643L1068.72 481.584V480.92C1068.72 480.08 1068.54 479.462 1068.17 479.064C1067.81 478.661 1067.24 478.459 1066.44 478.459C1065.55 478.459 1064.54 478.732 1063.42 479.279L1062.92 478.039C1063.45 477.753 1064.02 477.528 1064.65 477.365C1065.28 477.202 1065.91 477.121 1066.54 477.121C1067.82 477.121 1068.76 477.404 1069.37 477.971C1069.99 478.537 1070.3 479.445 1070.3 480.695V488H1069.1ZM1065.44 486.857C1066.45 486.857 1067.24 486.581 1067.81 486.027C1068.39 485.474 1068.68 484.699 1068.68 483.703V482.736L1067.06 482.805C1065.77 482.85 1064.84 483.052 1064.27 483.41C1063.7 483.762 1063.42 484.312 1063.42 485.061C1063.42 485.646 1063.59 486.092 1063.94 486.398C1064.3 486.704 1064.8 486.857 1065.44 486.857ZM1077.11 486.857C1077.39 486.857 1077.67 486.838 1077.94 486.799C1078.2 486.753 1078.42 486.708 1078.57 486.662V487.902C1078.4 487.987 1078.14 488.055 1077.79 488.107C1077.45 488.166 1077.15 488.195 1076.87 488.195C1074.8 488.195 1073.77 487.105 1073.77 484.924V478.557H1072.23V477.775L1073.77 477.102L1074.45 474.816H1075.39V477.297H1078.49V478.557H1075.39V484.855C1075.39 485.5 1075.54 485.995 1075.85 486.34C1076.15 486.685 1076.57 486.857 1077.11 486.857ZM1085 488.195C1083.45 488.195 1082.25 487.72 1081.39 486.77C1080.55 485.812 1080.12 484.462 1080.12 482.717C1080.12 480.926 1080.55 479.543 1081.41 478.566C1082.28 477.59 1083.51 477.102 1085.11 477.102C1085.62 477.102 1086.13 477.157 1086.65 477.268C1087.16 477.378 1087.57 477.508 1087.86 477.658L1087.36 479.035C1087 478.892 1086.61 478.775 1086.19 478.684C1085.77 478.586 1085.39 478.537 1085.07 478.537C1082.89 478.537 1081.8 479.924 1081.8 482.697C1081.8 484.012 1082.07 485.021 1082.6 485.725C1083.13 486.428 1083.92 486.779 1084.96 486.779C1085.85 486.779 1086.77 486.587 1087.7 486.203V487.639C1086.99 488.01 1086.09 488.195 1085 488.195ZM1097.58 488V481.076C1097.58 480.204 1097.38 479.553 1096.98 479.123C1096.58 478.693 1095.96 478.479 1095.12 478.479C1093.99 478.479 1093.17 478.785 1092.64 479.396C1092.13 480.008 1091.87 481.011 1091.87 482.404V488H1090.25V472.805H1091.87V477.404C1091.87 477.958 1091.85 478.417 1091.79 478.781H1091.89C1092.21 478.267 1092.66 477.863 1093.25 477.57C1093.84 477.271 1094.52 477.121 1095.27 477.121C1096.58 477.121 1097.56 477.434 1098.21 478.059C1098.87 478.677 1099.2 479.663 1099.2 481.018V488H1097.58Z" fill="black"/>
<path d="M731.521 200V185.723H733.182V200H731.521ZM744.188 200V193.076C744.188 192.204 743.989 191.553 743.592 191.123C743.195 190.693 742.573 190.479 741.727 190.479C740.607 190.479 739.786 190.781 739.266 191.387C738.745 191.992 738.484 192.992 738.484 194.385V200H736.863V189.297H738.182L738.445 190.762H738.523C738.855 190.234 739.321 189.827 739.92 189.541C740.519 189.248 741.186 189.102 741.922 189.102C743.211 189.102 744.181 189.414 744.832 190.039C745.483 190.658 745.809 191.65 745.809 193.018V200H744.188ZM756.434 198.564H756.346C755.597 199.652 754.477 200.195 752.986 200.195C751.587 200.195 750.496 199.717 749.715 198.76C748.94 197.803 748.553 196.442 748.553 194.678C748.553 192.913 748.943 191.543 749.725 190.566C750.506 189.59 751.593 189.102 752.986 189.102C754.438 189.102 755.551 189.629 756.326 190.684H756.453L756.385 189.912L756.346 189.16V184.805H757.967V200H756.648L756.434 198.564ZM753.191 198.838C754.298 198.838 755.099 198.538 755.594 197.939C756.095 197.334 756.346 196.361 756.346 195.02V194.678C756.346 193.161 756.092 192.08 755.584 191.436C755.083 190.785 754.279 190.459 753.172 190.459C752.221 190.459 751.492 190.83 750.984 191.572C750.483 192.308 750.232 193.35 750.232 194.697C750.232 196.064 750.483 197.096 750.984 197.793C751.486 198.49 752.221 198.838 753.191 198.838ZM762.938 189.297V196.24C762.938 197.113 763.136 197.764 763.533 198.193C763.93 198.623 764.552 198.838 765.398 198.838C766.518 198.838 767.335 198.532 767.85 197.92C768.37 197.308 768.631 196.309 768.631 194.922V189.297H770.252V200H768.914L768.68 198.564H768.592C768.26 199.092 767.798 199.495 767.205 199.775C766.619 200.055 765.949 200.195 765.193 200.195C763.891 200.195 762.915 199.886 762.264 199.268C761.619 198.649 761.297 197.66 761.297 196.299V189.297H762.938ZM780.604 197.08C780.604 198.076 780.232 198.844 779.49 199.385C778.748 199.925 777.706 200.195 776.365 200.195C774.946 200.195 773.839 199.971 773.045 199.521V198.018C773.559 198.278 774.109 198.483 774.695 198.633C775.288 198.783 775.857 198.857 776.404 198.857C777.251 198.857 777.902 198.724 778.357 198.457C778.813 198.184 779.041 197.77 779.041 197.217C779.041 196.8 778.859 196.445 778.494 196.152C778.136 195.853 777.433 195.501 776.385 195.098C775.389 194.727 774.679 194.404 774.256 194.131C773.839 193.851 773.527 193.535 773.318 193.184C773.117 192.832 773.016 192.412 773.016 191.924C773.016 191.051 773.37 190.365 774.08 189.863C774.79 189.355 775.763 189.102 777 189.102C778.152 189.102 779.279 189.336 780.379 189.805L779.803 191.123C778.729 190.68 777.755 190.459 776.883 190.459C776.115 190.459 775.535 190.579 775.145 190.82C774.754 191.061 774.559 191.393 774.559 191.816C774.559 192.103 774.63 192.347 774.773 192.549C774.923 192.751 775.161 192.943 775.486 193.125C775.812 193.307 776.437 193.571 777.361 193.916C778.631 194.378 779.487 194.844 779.93 195.312C780.379 195.781 780.604 196.37 780.604 197.08ZM786.707 198.857C786.993 198.857 787.27 198.838 787.537 198.799C787.804 198.753 788.016 198.708 788.172 198.662V199.902C787.996 199.987 787.736 200.055 787.391 200.107C787.052 200.166 786.746 200.195 786.473 200.195C784.402 200.195 783.367 199.105 783.367 196.924V190.557H781.834V189.775L783.367 189.102L784.051 186.816H784.988V189.297H788.094V190.557H784.988V196.855C784.988 197.5 785.141 197.995 785.447 198.34C785.753 198.685 786.173 198.857 786.707 198.857ZM795.203 189.102C795.678 189.102 796.105 189.141 796.482 189.219L796.258 190.723C795.815 190.625 795.424 190.576 795.086 190.576C794.22 190.576 793.478 190.928 792.859 191.631C792.247 192.334 791.941 193.21 791.941 194.258V200H790.32V189.297H791.658L791.844 191.279H791.922C792.319 190.583 792.798 190.046 793.357 189.668C793.917 189.29 794.533 189.102 795.203 189.102ZM796.785 189.297H798.523L800.867 195.4C801.382 196.794 801.701 197.799 801.824 198.418H801.902C801.987 198.086 802.163 197.52 802.43 196.719C802.703 195.911 803.589 193.438 805.086 189.297H806.824L802.225 201.484C801.769 202.689 801.235 203.542 800.623 204.043C800.018 204.551 799.272 204.805 798.387 204.805C797.892 204.805 797.404 204.749 796.922 204.639V203.34C797.28 203.418 797.68 203.457 798.123 203.457C799.236 203.457 800.031 202.832 800.506 201.582L801.102 200.059L796.785 189.297ZM818.035 200.195C816.486 200.195 815.285 199.72 814.432 198.77C813.585 197.812 813.162 196.462 813.162 194.717C813.162 192.926 813.592 191.543 814.451 190.566C815.317 189.59 816.548 189.102 818.143 189.102C818.657 189.102 819.171 189.157 819.686 189.268C820.2 189.378 820.604 189.508 820.896 189.658L820.398 191.035C820.04 190.892 819.65 190.775 819.227 190.684C818.803 190.586 818.429 190.537 818.104 190.537C815.929 190.537 814.842 191.924 814.842 194.697C814.842 196.012 815.105 197.021 815.633 197.725C816.167 198.428 816.954 198.779 817.996 198.779C818.888 198.779 819.803 198.587 820.74 198.203V199.639C820.024 200.01 819.122 200.195 818.035 200.195ZM832.527 194.639C832.527 196.383 832.088 197.747 831.209 198.73C830.33 199.707 829.116 200.195 827.566 200.195C826.609 200.195 825.76 199.971 825.018 199.521C824.275 199.072 823.702 198.428 823.299 197.588C822.895 196.748 822.693 195.765 822.693 194.639C822.693 192.894 823.13 191.536 824.002 190.566C824.874 189.59 826.085 189.102 827.635 189.102C829.132 189.102 830.32 189.6 831.199 190.596C832.085 191.592 832.527 192.939 832.527 194.639ZM824.373 194.639C824.373 196.006 824.646 197.048 825.193 197.764C825.74 198.48 826.544 198.838 827.605 198.838C828.667 198.838 829.471 198.483 830.018 197.773C830.571 197.057 830.848 196.012 830.848 194.639C830.848 193.278 830.571 192.246 830.018 191.543C829.471 190.833 828.66 190.479 827.586 190.479C826.525 190.479 825.724 190.827 825.184 191.523C824.643 192.22 824.373 193.258 824.373 194.639ZM836.902 189.297V196.24C836.902 197.113 837.101 197.764 837.498 198.193C837.895 198.623 838.517 198.838 839.363 198.838C840.483 198.838 841.3 198.532 841.814 197.92C842.335 197.308 842.596 196.309 842.596 194.922V189.297H844.217V200H842.879L842.645 198.564H842.557C842.225 199.092 841.762 199.495 841.17 199.775C840.584 200.055 839.913 200.195 839.158 200.195C837.856 200.195 836.88 199.886 836.229 199.268C835.584 198.649 835.262 197.66 835.262 196.299V189.297H836.902ZM852.547 189.102C853.022 189.102 853.449 189.141 853.826 189.219L853.602 190.723C853.159 190.625 852.768 190.576 852.43 190.576C851.564 190.576 850.822 190.928 850.203 191.631C849.591 192.334 849.285 193.21 849.285 194.258V200H847.664V189.297H849.002L849.188 191.279H849.266C849.663 190.583 850.141 190.046 850.701 189.668C851.261 189.29 851.876 189.102 852.547 189.102ZM862.732 197.08C862.732 198.076 862.361 198.844 861.619 199.385C860.877 199.925 859.835 200.195 858.494 200.195C857.075 200.195 855.968 199.971 855.174 199.521V198.018C855.688 198.278 856.238 198.483 856.824 198.633C857.417 198.783 857.986 198.857 858.533 198.857C859.38 198.857 860.031 198.724 860.486 198.457C860.942 198.184 861.17 197.77 861.17 197.217C861.17 196.8 860.988 196.445 860.623 196.152C860.265 195.853 859.562 195.501 858.514 195.098C857.518 194.727 856.808 194.404 856.385 194.131C855.968 193.851 855.656 193.535 855.447 193.184C855.245 192.832 855.145 192.412 855.145 191.924C855.145 191.051 855.499 190.365 856.209 189.863C856.919 189.355 857.892 189.102 859.129 189.102C860.281 189.102 861.408 189.336 862.508 189.805L861.932 191.123C860.857 190.68 859.884 190.459 859.012 190.459C858.243 190.459 857.664 190.579 857.273 190.82C856.883 191.061 856.688 191.393 856.688 191.816C856.688 192.103 856.759 192.347 856.902 192.549C857.052 192.751 857.29 192.943 857.615 193.125C857.941 193.307 858.566 193.571 859.49 193.916C860.76 194.378 861.616 194.844 862.059 195.312C862.508 195.781 862.732 196.37 862.732 197.08ZM869.9 200.195C868.318 200.195 867.068 199.714 866.15 198.75C865.239 197.786 864.783 196.449 864.783 194.736C864.783 193.011 865.206 191.641 866.053 190.625C866.906 189.609 868.048 189.102 869.48 189.102C870.822 189.102 871.883 189.544 872.664 190.43C873.445 191.309 873.836 192.471 873.836 193.916V194.941H866.463C866.495 196.198 866.811 197.152 867.41 197.803C868.016 198.454 868.865 198.779 869.959 198.779C871.111 198.779 872.251 198.538 873.377 198.057V199.502C872.804 199.749 872.26 199.925 871.746 200.029C871.238 200.14 870.623 200.195 869.9 200.195ZM869.461 190.459C868.602 190.459 867.915 190.739 867.4 191.299C866.893 191.859 866.593 192.633 866.502 193.623H872.098C872.098 192.601 871.87 191.82 871.414 191.279C870.958 190.732 870.307 190.459 869.461 190.459ZM883.514 197.08C883.514 198.076 883.143 198.844 882.4 199.385C881.658 199.925 880.617 200.195 879.275 200.195C877.856 200.195 876.749 199.971 875.955 199.521V198.018C876.469 198.278 877.02 198.483 877.605 198.633C878.198 198.783 878.768 198.857 879.314 198.857C880.161 198.857 880.812 198.724 881.268 198.457C881.723 198.184 881.951 197.77 881.951 197.217C881.951 196.8 881.769 196.445 881.404 196.152C881.046 195.853 880.343 195.501 879.295 195.098C878.299 194.727 877.589 194.404 877.166 194.131C876.749 193.851 876.437 193.535 876.229 193.184C876.027 192.832 875.926 192.412 875.926 191.924C875.926 191.051 876.281 190.365 876.99 189.863C877.7 189.355 878.673 189.102 879.91 189.102C881.062 189.102 882.189 189.336 883.289 189.805L882.713 191.123C881.639 190.68 880.665 190.459 879.793 190.459C879.025 190.459 878.445 190.579 878.055 190.82C877.664 191.061 877.469 191.393 877.469 191.816C877.469 192.103 877.54 192.347 877.684 192.549C877.833 192.751 878.071 192.943 878.396 193.125C878.722 193.307 879.347 193.571 880.271 193.916C881.541 194.378 882.397 194.844 882.84 195.312C883.289 195.781 883.514 196.37 883.514 197.08Z" fill="black"/>
<path d="M1179.79 164.883C1179.79 166.328 1179.3 167.441 1178.31 168.223C1177.33 168.997 1175.92 169.385 1174.08 169.385H1172.4V175H1170.74V160.723H1174.44C1178.01 160.723 1179.79 162.109 1179.79 164.883ZM1172.4 167.959H1173.9C1175.37 167.959 1176.43 167.721 1177.09 167.246C1177.75 166.771 1178.08 166.009 1178.08 164.961C1178.08 164.017 1177.77 163.314 1177.15 162.852C1176.53 162.389 1175.57 162.158 1174.26 162.158H1172.4V167.959ZM1187.43 164.102C1187.91 164.102 1188.33 164.141 1188.71 164.219L1188.49 165.723C1188.04 165.625 1187.65 165.576 1187.31 165.576C1186.45 165.576 1185.71 165.928 1185.09 166.631C1184.48 167.334 1184.17 168.21 1184.17 169.258V175H1182.55V164.297H1183.89L1184.07 166.279H1184.15C1184.55 165.583 1185.03 165.046 1185.59 164.668C1186.15 164.29 1186.76 164.102 1187.43 164.102ZM1195.23 175.195C1193.65 175.195 1192.4 174.714 1191.48 173.75C1190.57 172.786 1190.12 171.449 1190.12 169.736C1190.12 168.011 1190.54 166.641 1191.39 165.625C1192.24 164.609 1193.38 164.102 1194.81 164.102C1196.16 164.102 1197.22 164.544 1198 165.43C1198.78 166.309 1199.17 167.471 1199.17 168.916V169.941H1191.8C1191.83 171.198 1192.15 172.152 1192.74 172.803C1193.35 173.454 1194.2 173.779 1195.29 173.779C1196.45 173.779 1197.58 173.538 1198.71 173.057V174.502C1198.14 174.749 1197.59 174.925 1197.08 175.029C1196.57 175.14 1195.96 175.195 1195.23 175.195ZM1194.79 165.459C1193.94 165.459 1193.25 165.739 1192.73 166.299C1192.23 166.859 1191.93 167.633 1191.84 168.623H1197.43C1197.43 167.601 1197.2 166.82 1196.75 166.279C1196.29 165.732 1195.64 165.459 1194.79 165.459ZM1206.92 175.195C1206.23 175.195 1205.59 175.068 1205.01 174.814C1204.44 174.554 1203.96 174.157 1203.56 173.623H1203.45C1203.53 174.248 1203.56 174.84 1203.56 175.4V179.805H1201.94V164.297H1203.26L1203.49 165.762H1203.56C1203.98 165.176 1204.47 164.753 1205.02 164.492C1205.57 164.232 1206.21 164.102 1206.92 164.102C1208.34 164.102 1209.44 164.587 1210.21 165.557C1210.98 166.527 1211.37 167.887 1211.37 169.639C1211.37 171.396 1210.97 172.764 1210.19 173.74C1209.4 174.71 1208.32 175.195 1206.92 175.195ZM1206.69 165.479C1205.6 165.479 1204.8 165.781 1204.32 166.387C1203.83 166.992 1203.58 167.956 1203.56 169.277V169.639C1203.56 171.143 1203.82 172.22 1204.32 172.871C1204.82 173.516 1205.62 173.838 1206.73 173.838C1207.65 173.838 1208.38 173.464 1208.9 172.715C1209.42 171.966 1209.69 170.934 1209.69 169.619C1209.69 168.285 1209.42 167.262 1208.9 166.553C1208.38 165.837 1207.64 165.479 1206.69 165.479ZM1220.79 175L1220.47 173.477H1220.39C1219.86 174.147 1219.32 174.603 1218.79 174.844C1218.26 175.078 1217.6 175.195 1216.81 175.195C1215.75 175.195 1214.91 174.922 1214.31 174.375C1213.71 173.828 1213.41 173.05 1213.41 172.041C1213.41 169.88 1215.14 168.747 1218.59 168.643L1220.41 168.584V167.92C1220.41 167.08 1220.23 166.462 1219.86 166.064C1219.51 165.661 1218.93 165.459 1218.13 165.459C1217.24 165.459 1216.23 165.732 1215.11 166.279L1214.61 165.039C1215.14 164.753 1215.71 164.528 1216.34 164.365C1216.97 164.202 1217.6 164.121 1218.23 164.121C1219.51 164.121 1220.45 164.404 1221.06 164.971C1221.68 165.537 1221.99 166.445 1221.99 167.695V175H1220.79ZM1217.13 173.857C1218.14 173.857 1218.93 173.581 1219.5 173.027C1220.08 172.474 1220.37 171.699 1220.37 170.703V169.736L1218.75 169.805C1217.46 169.85 1216.53 170.052 1215.96 170.41C1215.39 170.762 1215.11 171.312 1215.11 172.061C1215.11 172.646 1215.28 173.092 1215.63 173.398C1215.99 173.704 1216.49 173.857 1217.13 173.857ZM1230.22 164.102C1230.7 164.102 1231.13 164.141 1231.5 164.219L1231.28 165.723C1230.84 165.625 1230.45 165.576 1230.11 165.576C1229.24 165.576 1228.5 165.928 1227.88 166.631C1227.27 167.334 1226.96 168.21 1226.96 169.258V175H1225.34V164.297H1226.68L1226.87 166.279H1226.94C1227.34 165.583 1227.82 165.046 1228.38 164.668C1228.94 164.29 1229.55 164.102 1230.22 164.102ZM1238.03 175.195C1236.45 175.195 1235.2 174.714 1234.28 173.75C1233.37 172.786 1232.91 171.449 1232.91 169.736C1232.91 168.011 1233.33 166.641 1234.18 165.625C1235.03 164.609 1236.18 164.102 1237.61 164.102C1238.95 164.102 1240.01 164.544 1240.79 165.43C1241.57 166.309 1241.96 167.471 1241.96 168.916V169.941H1234.59C1234.62 171.198 1234.94 172.152 1235.54 172.803C1236.14 173.454 1236.99 173.779 1238.09 173.779C1239.24 173.779 1240.38 173.538 1241.5 173.057V174.502C1240.93 174.749 1240.39 174.925 1239.87 175.029C1239.37 175.14 1238.75 175.195 1238.03 175.195ZM1237.59 165.459C1236.73 165.459 1236.04 165.739 1235.53 166.299C1235.02 166.859 1234.72 167.633 1234.63 168.623H1240.22C1240.22 167.601 1240 166.82 1239.54 166.279C1239.09 165.732 1238.43 165.459 1237.59 165.459ZM1254.76 165.557H1252.03V175H1250.41V165.557H1248.5V164.824L1250.41 164.238V163.643C1250.41 161.012 1251.56 159.697 1253.86 159.697C1254.42 159.697 1255.09 159.811 1255.85 160.039L1255.43 161.338C1254.8 161.136 1254.27 161.035 1253.83 161.035C1253.22 161.035 1252.76 161.24 1252.47 161.65C1252.18 162.054 1252.03 162.705 1252.03 163.604V164.297H1254.76V165.557ZM1265.95 169.639C1265.95 171.383 1265.51 172.747 1264.63 173.73C1263.75 174.707 1262.54 175.195 1260.99 175.195C1260.03 175.195 1259.18 174.971 1258.44 174.521C1257.7 174.072 1257.12 173.428 1256.72 172.588C1256.32 171.748 1256.11 170.765 1256.11 169.639C1256.11 167.894 1256.55 166.536 1257.42 165.566C1258.29 164.59 1259.51 164.102 1261.05 164.102C1262.55 164.102 1263.74 164.6 1264.62 165.596C1265.5 166.592 1265.95 167.939 1265.95 169.639ZM1257.79 169.639C1257.79 171.006 1258.07 172.048 1258.61 172.764C1259.16 173.48 1259.96 173.838 1261.03 173.838C1262.09 173.838 1262.89 173.483 1263.44 172.773C1263.99 172.057 1264.27 171.012 1264.27 169.639C1264.27 168.278 1263.99 167.246 1263.44 166.543C1262.89 165.833 1262.08 165.479 1261.01 165.479C1259.94 165.479 1259.14 165.827 1258.6 166.523C1258.06 167.22 1257.79 168.258 1257.79 169.639ZM1273.68 164.102C1274.16 164.102 1274.58 164.141 1274.96 164.219L1274.74 165.723C1274.29 165.625 1273.9 165.576 1273.56 165.576C1272.7 165.576 1271.96 165.928 1271.34 166.631C1270.73 167.334 1270.42 168.21 1270.42 169.258V175H1268.8V164.297H1270.14L1270.32 166.279H1270.4C1270.8 165.583 1271.28 165.046 1271.84 164.668C1272.4 164.29 1273.01 164.102 1273.68 164.102ZM1285.62 173.857C1285.9 173.857 1286.18 173.838 1286.45 173.799C1286.71 173.753 1286.92 173.708 1287.08 173.662V174.902C1286.9 174.987 1286.64 175.055 1286.3 175.107C1285.96 175.166 1285.65 175.195 1285.38 175.195C1283.31 175.195 1282.28 174.105 1282.28 171.924V165.557H1280.74V164.775L1282.28 164.102L1282.96 161.816H1283.9V164.297H1287V165.557H1283.9V171.855C1283.9 172.5 1284.05 172.995 1284.36 173.34C1284.66 173.685 1285.08 173.857 1285.62 173.857ZM1296.55 175V168.076C1296.55 167.204 1296.35 166.553 1295.96 166.123C1295.56 165.693 1294.94 165.479 1294.09 165.479C1292.97 165.479 1292.14 165.785 1291.62 166.396C1291.11 167.008 1290.85 168.011 1290.85 169.404V175H1289.23V159.805H1290.85V164.404C1290.85 164.958 1290.82 165.417 1290.77 165.781H1290.87C1291.19 165.267 1291.64 164.863 1292.23 164.57C1292.82 164.271 1293.49 164.121 1294.25 164.121C1295.56 164.121 1296.54 164.434 1297.19 165.059C1297.85 165.677 1298.17 166.663 1298.17 168.018V175H1296.55ZM1306.04 175.195C1304.45 175.195 1303.2 174.714 1302.29 173.75C1301.37 172.786 1300.92 171.449 1300.92 169.736C1300.92 168.011 1301.34 166.641 1302.19 165.625C1303.04 164.609 1304.18 164.102 1305.62 164.102C1306.96 164.102 1308.02 164.544 1308.8 165.43C1309.58 166.309 1309.97 167.471 1309.97 168.916V169.941H1302.6C1302.63 171.198 1302.95 172.152 1303.54 172.803C1304.15 173.454 1305 173.779 1306.09 173.779C1307.25 173.779 1308.39 173.538 1309.51 173.057V174.502C1308.94 174.749 1308.4 174.925 1307.88 175.029C1307.37 175.14 1306.76 175.195 1306.04 175.195ZM1305.6 165.459C1304.74 165.459 1304.05 165.739 1303.54 166.299C1303.03 166.859 1302.73 167.633 1302.64 168.623H1308.23C1308.23 167.601 1308 166.82 1307.55 166.279C1307.09 165.732 1306.44 165.459 1305.6 165.459ZM1182.77 206.805C1182.15 206.805 1181.65 206.723 1181.27 206.561V205.242C1181.72 205.372 1182.16 205.438 1182.6 205.438C1183.11 205.438 1183.48 205.298 1183.71 205.018C1183.95 204.744 1184.07 204.324 1184.07 203.758V191.297H1185.69V203.641C1185.69 205.75 1184.72 206.805 1182.77 206.805ZM1183.94 188.396C1183.94 188.025 1184.03 187.755 1184.21 187.586C1184.39 187.41 1184.62 187.322 1184.89 187.322C1185.15 187.322 1185.38 187.41 1185.57 187.586C1185.76 187.762 1185.85 188.032 1185.85 188.396C1185.85 188.761 1185.76 189.035 1185.57 189.217C1185.38 189.393 1185.15 189.48 1184.89 189.48C1184.62 189.48 1184.39 189.393 1184.21 189.217C1184.03 189.035 1183.94 188.761 1183.94 188.396ZM1198.37 196.639C1198.37 198.383 1197.93 199.747 1197.05 200.73C1196.17 201.707 1194.96 202.195 1193.41 202.195C1192.45 202.195 1191.6 201.971 1190.86 201.521C1190.12 201.072 1189.54 200.428 1189.14 199.588C1188.74 198.748 1188.54 197.765 1188.54 196.639C1188.54 194.894 1188.97 193.536 1189.84 192.566C1190.72 191.59 1191.93 191.102 1193.48 191.102C1194.97 191.102 1196.16 191.6 1197.04 192.596C1197.93 193.592 1198.37 194.939 1198.37 196.639ZM1190.21 196.639C1190.21 198.006 1190.49 199.048 1191.04 199.764C1191.58 200.48 1192.39 200.838 1193.45 200.838C1194.51 200.838 1195.31 200.483 1195.86 199.773C1196.41 199.057 1196.69 198.012 1196.69 196.639C1196.69 195.278 1196.41 194.246 1195.86 193.543C1195.31 192.833 1194.5 192.479 1193.43 192.479C1192.37 192.479 1191.57 192.827 1191.03 193.523C1190.49 194.22 1190.21 195.258 1190.21 196.639ZM1206.2 191.121C1207.61 191.121 1208.7 191.603 1209.47 192.566C1210.25 193.523 1210.64 194.881 1210.64 196.639C1210.64 198.396 1210.25 199.764 1209.46 200.74C1208.68 201.71 1207.59 202.195 1206.2 202.195C1205.5 202.195 1204.87 202.068 1204.29 201.814C1203.71 201.554 1203.23 201.157 1202.84 200.623H1202.72L1202.38 202H1201.22V186.805H1202.84V190.496C1202.84 191.323 1202.82 192.065 1202.76 192.723H1202.84C1203.6 191.655 1204.72 191.121 1206.2 191.121ZM1205.97 192.479C1204.86 192.479 1204.06 192.798 1203.57 193.436C1203.09 194.067 1202.84 195.135 1202.84 196.639C1202.84 198.143 1203.09 199.22 1203.59 199.871C1204.1 200.516 1204.9 200.838 1206.01 200.838C1207 200.838 1207.74 200.477 1208.23 199.754C1208.72 199.025 1208.96 197.98 1208.96 196.619C1208.96 195.226 1208.72 194.188 1208.23 193.504C1207.74 192.82 1206.99 192.479 1205.97 192.479ZM1220.3 202H1218.68V191.297H1220.3V202ZM1218.54 188.396C1218.54 188.025 1218.64 187.755 1218.82 187.586C1219 187.41 1219.23 187.322 1219.5 187.322C1219.76 187.322 1219.99 187.41 1220.18 187.586C1220.36 187.762 1220.46 188.032 1220.46 188.396C1220.46 188.761 1220.36 189.035 1220.18 189.217C1219.99 189.393 1219.76 189.48 1219.5 189.48C1219.23 189.48 1219 189.393 1218.82 189.217C1218.64 189.035 1218.54 188.761 1218.54 188.396ZM1231.06 202V195.076C1231.06 194.204 1230.87 193.553 1230.47 193.123C1230.07 192.693 1229.45 192.479 1228.6 192.479C1227.48 192.479 1226.66 192.781 1226.14 193.387C1225.62 193.992 1225.36 194.992 1225.36 196.385V202H1223.74V191.297H1225.06L1225.32 192.762H1225.4C1225.73 192.234 1226.2 191.827 1226.8 191.541C1227.4 191.248 1228.06 191.102 1228.8 191.102C1230.09 191.102 1231.06 191.414 1231.71 192.039C1232.36 192.658 1232.69 193.65 1232.69 195.018V202H1231.06ZM1239.48 200.857C1239.77 200.857 1240.05 200.838 1240.31 200.799C1240.58 200.753 1240.79 200.708 1240.95 200.662V201.902C1240.77 201.987 1240.51 202.055 1240.17 202.107C1239.83 202.166 1239.52 202.195 1239.25 202.195C1237.18 202.195 1236.14 201.105 1236.14 198.924V192.557H1234.61V191.775L1236.14 191.102L1236.83 188.816H1237.76V191.297H1240.87V192.557H1237.76V198.855C1237.76 199.5 1237.92 199.995 1238.22 200.34C1238.53 200.685 1238.95 200.857 1239.48 200.857ZM1247.62 202.195C1246.04 202.195 1244.79 201.714 1243.87 200.75C1242.96 199.786 1242.5 198.449 1242.5 196.736C1242.5 195.011 1242.92 193.641 1243.77 192.625C1244.62 191.609 1245.76 191.102 1247.2 191.102C1248.54 191.102 1249.6 191.544 1250.38 192.43C1251.16 193.309 1251.55 194.471 1251.55 195.916V196.941H1244.18C1244.21 198.198 1244.53 199.152 1245.13 199.803C1245.73 200.454 1246.58 200.779 1247.68 200.779C1248.83 200.779 1249.97 200.538 1251.09 200.057V201.502C1250.52 201.749 1249.98 201.925 1249.46 202.029C1248.96 202.14 1248.34 202.195 1247.62 202.195ZM1247.18 192.459C1246.32 192.459 1245.63 192.739 1245.12 193.299C1244.61 193.859 1244.31 194.633 1244.22 195.623H1249.81C1249.81 194.601 1249.59 193.82 1249.13 193.279C1248.68 192.732 1248.02 192.459 1247.18 192.459ZM1259.21 191.102C1259.68 191.102 1260.11 191.141 1260.49 191.219L1260.26 192.723C1259.82 192.625 1259.43 192.576 1259.09 192.576C1258.23 192.576 1257.48 192.928 1256.87 193.631C1256.25 194.334 1255.95 195.21 1255.95 196.258V202H1254.33V191.297H1255.66L1255.85 193.279H1255.93C1256.32 192.583 1256.8 192.046 1257.36 191.668C1257.92 191.29 1258.54 191.102 1259.21 191.102ZM1264.83 202L1260.77 191.297H1262.51L1264.81 197.645C1265.34 199.129 1265.64 200.092 1265.73 200.535H1265.81C1265.88 200.19 1266.11 199.477 1266.48 198.396C1266.87 197.309 1267.72 194.943 1269.05 191.297H1270.79L1266.73 202H1264.83ZM1274.13 202H1272.51V191.297H1274.13V202ZM1272.37 188.396C1272.37 188.025 1272.46 187.755 1272.65 187.586C1272.83 187.41 1273.06 187.322 1273.33 187.322C1273.59 187.322 1273.82 187.41 1274 187.586C1274.19 187.762 1274.29 188.032 1274.29 188.396C1274.29 188.761 1274.19 189.035 1274 189.217C1273.82 189.393 1273.59 189.48 1273.33 189.48C1273.06 189.48 1272.83 189.393 1272.65 189.217C1272.46 189.035 1272.37 188.761 1272.37 188.396ZM1282.09 202.195C1280.51 202.195 1279.26 201.714 1278.34 200.75C1277.43 199.786 1276.97 198.449 1276.97 196.736C1276.97 195.011 1277.4 193.641 1278.24 192.625C1279.1 191.609 1280.24 191.102 1281.67 191.102C1283.01 191.102 1284.07 191.544 1284.85 192.43C1285.63 193.309 1286.03 194.471 1286.03 195.916V196.941H1278.65C1278.68 198.198 1279 199.152 1279.6 199.803C1280.21 200.454 1281.05 200.779 1282.15 200.779C1283.3 200.779 1284.44 200.538 1285.57 200.057V201.502C1284.99 201.749 1284.45 201.925 1283.94 202.029C1283.43 202.14 1282.81 202.195 1282.09 202.195ZM1281.65 192.459C1280.79 192.459 1280.1 192.739 1279.59 193.299C1279.08 193.859 1278.78 194.633 1278.69 195.623H1284.29C1284.29 194.601 1284.06 193.82 1283.6 193.279C1283.15 192.732 1282.5 192.459 1281.65 192.459ZM1297.54 202L1295.58 195.721C1295.45 195.337 1295.22 194.464 1294.88 193.104H1294.8C1294.54 194.243 1294.32 195.122 1294.12 195.74L1292.1 202H1290.22L1287.3 191.297H1289C1289.69 193.986 1290.22 196.033 1290.58 197.439C1290.94 198.846 1291.15 199.793 1291.2 200.281H1291.28C1291.35 199.91 1291.46 199.432 1291.62 198.846C1291.78 198.253 1291.92 197.785 1292.04 197.439L1294 191.297H1295.76L1297.68 197.439C1298.04 198.559 1298.29 199.5 1298.42 200.262H1298.5C1298.52 200.027 1298.59 199.666 1298.7 199.178C1298.82 198.689 1299.5 196.062 1300.74 191.297H1302.42L1299.46 202H1297.54Z" fill="black"/>
</svg>
