<svg width="61" height="60" viewBox="0 0 61 60" fill="none" xmlns="http://www.w3.org/2000/svg">
<path fill-rule="evenodd" clip-rule="evenodd" d="M50.3769 17.5H40.3079C40.3079 11.975 35.802 7.5 30.2388 7.5C24.6757 7.5 20.1698 11.975 20.1698 17.5H10.1007C7.3317 17.5 5.06616 19.75 5.06616 22.5V30C5.06616 32.775 7.30653 35 10.1007 35H25.2043V32.5C25.2043 31.125 26.3371 30 27.7215 30H32.7561C34.1406 30 35.2733 31.125 35.2733 32.5V35H50.3769C53.1459 35 55.4115 32.75 55.4115 30V22.5C55.4115 19.75 53.1459 17.5 50.3769 17.5ZM32.7561 40H27.7216C26.3371 40 25.2043 38.875 25.2043 37.5H7.60861V47.5C7.60861 50.25 9.87415 52.5 12.6431 52.5H47.8597C50.6287 52.5 52.8942 50.25 52.8942 47.5V37.5H35.2734C35.2734 38.875 34.1406 40 32.7561 40ZM30.2388 12.5C27.4698 12.5 25.2043 14.75 25.2043 17.5H35.2733C35.2733 14.75 33.0078 12.5 30.2388 12.5Z" fill="white"/>
</svg>
