<svg width="32" height="30" viewBox="0 0 32 30" fill="none" xmlns="http://www.w3.org/2000/svg">
<path fill-rule="evenodd" clip-rule="evenodd" d="M7.22967 3.75H24.8505C26.235 3.75 27.3678 4.875 27.3678 6.25V23.75C27.3678 25.125 26.235 26.25 24.8505 26.25H7.22967C5.84517 26.25 4.7124 25.125 4.7124 23.75V20C4.7124 19.3125 5.27879 18.75 5.97103 18.75C6.66328 18.75 7.22967 19.3125 7.22967 20V22.5C7.22967 23.1875 7.79605 23.75 8.4883 23.75H23.5919C24.2841 23.75 24.8505 23.1875 24.8505 22.5V7.5C24.8505 6.8125 24.2841 6.25 23.5919 6.25H8.4883C7.79605 6.25 7.22967 6.8125 7.22967 7.5V10C7.22967 10.6875 6.66328 11.25 5.97103 11.25C5.27879 11.25 4.7124 10.6875 4.7124 10V6.25C4.7124 4.875 5.83259 3.75 7.22967 3.75ZM20.8103 15.875L16.2918 20.3625C15.801 20.85 15.008 20.85 14.5172 20.3625C14.0389 19.8875 14.0263 19.0875 14.5172 18.6L16.8834 16.25H5.97104C5.27879 16.25 4.7124 15.6875 4.7124 15C4.7124 14.3125 5.27879 13.75 5.97104 13.75H16.8834L14.5172 11.3875C14.0263 10.9 14.0263 10.1125 14.5172 9.625C14.7523 9.39094 15.0716 9.2594 15.4045 9.2594C15.7374 9.2594 16.0567 9.39094 16.2918 9.625L20.8103 14.1125C21.3012 14.6 21.3012 15.3875 20.8103 15.875Z" fill="white"/>
</svg>
