<svg width="27" height="27" viewBox="0 0 27 27" fill="none" xmlns="http://www.w3.org/2000/svg">
<path fill-rule="evenodd" clip-rule="evenodd" d="M23.698 8.96875V5.60625C23.698 4.23125 22.5652 3.10625 21.1807 3.10625H17.795L15.4036 0.73125C14.4218 -0.24375 12.8234 -0.24375 11.8416 0.73125L9.46282 3.10625H6.0771C4.6926 3.10625 3.55983 4.23125 3.55983 5.60625V8.96875L1.16843 11.3437C0.186696 12.3187 0.186696 13.9062 1.16843 14.8812L3.55983 17.2563V20.6063C3.55983 21.9813 4.6926 23.1063 6.0771 23.1063H9.46282L11.8542 25.4813C12.836 26.4563 14.4344 26.4563 15.4161 25.4813L17.8076 23.1063H21.1807C22.5652 23.1063 23.698 21.9813 23.698 20.6063V17.2437L26.0894 14.8688C27.0711 13.8938 27.0711 12.3062 26.0894 11.3312L23.698 8.96875ZM13.6289 20.6062C9.46282 20.6062 6.07709 17.2437 6.07709 13.1062C6.07709 8.96875 9.46282 5.60625 13.6289 5.60625C17.795 5.60625 21.1807 8.96875 21.1807 13.1062C21.1807 17.2437 17.795 20.6062 13.6289 20.6062ZM8.59436 13.1062C8.59436 10.3437 10.8473 8.10625 13.6289 8.10625C16.4105 8.10625 18.6634 10.3437 18.6634 13.1062C18.6634 15.8687 16.4105 18.1062 13.6289 18.1062C10.8473 18.1062 8.59436 15.8687 8.59436 13.1062Z" fill="#0BA360"/>
</svg>
